<svg t="1764920911127" class="icon" viewBox="0 0 1207 1024" version="1.1" xmlns="http://www.w3.org/2000/svg" p-id="55258" width="200" height="200"><path d="M1136.377436 17.77559a178.123487 178.123487 0 0 0-62.700308-13.968411c-73.780513-12.603077-173.869949 6.826667-253.164307 49.073231 23.368205-56.950154-65.693538-31.954051-99.643077-23.210666-109.095385 28.146872-207.058051 79.031795-294.413129 148.506256 7.745641-48.311795-53.668103-20.138667-97.542564 16.068923-86.646154 71.522462-155.516718 156.908308-197.632 260.227282-37.467897 91.976205-37.23159 185.238974-3.597128 271.885128 113.637744-124.875487 221.735385-244.237128 360.868103-364.281436 155.779282-134.51159 341.884718-237.961846 449.956102-247.230359C531.324718 318.857846 262.038974 656.357744 0 1001.10441h453.815795v-17.381743H47.891692c7.719385-3.413333 14.441026-7.666872 21.110154-14.913641 30.194872-32.925538 55.033436-70.708513 87.013744-102.058667 40.277333-39.384615 42.719179-36.050051 77.377641-36.969026 67.478974-1.706667 135.666872-6.669128 201.911795-18.747077 140.970667-25.731282 261.198769-89.718154 353.20123-200.021333 22.948103-27.516718 45.266051-74.358154-14.099692-72.520205 20.926359-9.819897 35.787487-15.806359 49.650872-23.473231 107.966359-59.812103 208.134564-128.472615 271.622564-236.91159 17.145436-29.249641 36.680205-85.175795-21.13641-74.226871 31.875282-30.982564 63.356718-56.503795 88.431589-87.04 37.205333-45.266051 27.411692-76.668718-26.624-99.065436z" fill="#656565" p-id="55259" data-spm-anchor-id="a313x.search_index.0.i40.346e3a812QHPgC" class="selected"></path></svg>