<svg t="1765430086935" class="icon" viewBox="0 0 1024 1024" version="1.1" xmlns="http://www.w3.org/2000/svg" p-id="4344" width="200" height="200"><path d="M119.466667 921.6a392.533333 34.133333 0 1 0 785.066666 0 392.533333 34.133333 0 1 0-785.066666 0Z" fill="#DAE9FF" p-id="4345"></path><path d="M972.8 727.04H571.733333V551.253333H271.36V151.893333h460.8v100.693334H972.8l-100.693333 199.68L972.8 727.04zM221.866667 938.666667c-27.306667 0-49.493333-22.186667-49.493334-49.493334V151.893333C170.666667 124.586667 192.853333 102.4 221.866667 102.4c27.306667 0 49.493333 22.186667 49.493333 49.493333v737.28c0 27.306667-22.186667 49.493333-49.493333 49.493334z" fill="#DAE9FF" p-id="4346"></path><path d="M901.12 725.333333H554.666667v-81.92H206.506667V138.24h467.626666v102.4h226.986667L802.133333 443.733333l98.986667 281.6zM153.6 921.6c-29.013333 0-52.906667-22.186667-52.906667-49.493333V134.826667C100.693333 107.52 124.586667 85.333333 153.6 85.333333c29.013333 0 52.906667 22.186667 52.906667 49.493334V870.4c0 29.013333-23.893333 51.2-52.906667 51.2z" fill="#3889FF" p-id="4347"></path><path d="M225.28 155.306667h35.84v498.346666h-35.84z" fill="#2064FF" p-id="4348"></path><path d="M373.76 448.853333h64.853333V409.6h-64.853333c-17.066667 0-25.6-13.653333-25.6-27.306667s8.533333-22.186667 25.6-22.186666h46.08s-34.133333-58.026667-46.08-80.213334c-11.946667-29.013333 37.546667-40.96 49.493333-17.066666 13.653333 25.6 39.253333 78.506667 39.253334 78.506666s22.186667-58.026667 35.84-87.04c11.946667-27.306667 59.733333 5.12 46.08 34.133334-11.946667 23.893333-37.546667 69.973333-37.546667 69.973333h46.08c17.066667 0 23.893333 6.826667 23.893333 22.186667s-6.826667 27.306667-23.893333 27.306666h-64.853333v37.546667h64.853333c17.066667 0 25.6 6.826667 25.6 22.186667 0 13.653333-8.533333 25.6-25.6 25.6h-64.853333v5.12c0 32.426667-8.533333 47.786667-25.6 47.786666H443.733333c-8.533333 0-6.826667-27.306667-6.826666-47.786666V494.933333h-64.853334c-17.066667 0-25.6-10.24-25.6-25.6 1.706667-13.653333 10.24-20.48 27.306667-20.48z" fill="#DAE9FF" p-id="4349"></path><path d="M356.693333 448.853333h64.853334V409.6h-64.853334c-17.066667 0-25.6-13.653333-25.6-27.306667s8.533333-22.186667 25.6-22.186666h46.08l-34.133333-68.266667c-11.946667-29.013333 25.6-51.2 39.253333-29.013333 13.653333 25.6 39.253333 78.506667 39.253334 78.506666s29.013333-56.32 42.666666-85.333333c11.946667-27.306667 51.2 3.413333 37.546667 34.133333-11.946667 23.893333-37.546667 71.68-37.546667 71.68h46.08c17.066667 0 25.6 6.826667 25.6 22.186667s-8.533333 27.306667-25.6 27.306667h-64.853333v39.253333h64.853333c17.066667 0 25.6 6.826667 25.6 22.186667 0 13.653333-8.533333 25.6-25.6 25.6h-64.853333v5.12c0 32.426667-8.533333 47.786667-25.6 47.786666s-25.6-15.36-25.6-47.786666V494.933333h-64.853333c-17.066667 0-25.6-10.24-25.6-25.6 0-13.653333 10.24-20.48 27.306666-20.48z" fill="#FFFFFF" p-id="4350"></path></svg>