<svg t="1766805364268" class="icon" viewBox="0 0 1024 1024" version="1.1" xmlns="http://www.w3.org/2000/svg" p-id="95371" width="200" height="200"><path d="M510.324364 75.869091a32.023273 32.023273 0 0 0-17.594182 0L108.544 185.250909a32.023273 32.023273 0 0 0-23.272727 30.813091V440.32c0 250.042182 164.119273 471.412364 406.248727 550.167273 6.423273 2.048 13.312 2.048 19.735273 0 242.036364-78.754909 406.062545-300.032 406.062545-550.167273V216.157091a32.023273 32.023273 0 0 0-23.272727-30.72L510.417455 75.776z m-104.261819 276.573091L512 458.379636l105.937455-105.937454a37.888 37.888 0 1 1 53.620363 53.620363L565.620364 512l105.937454 105.937455a37.888 37.888 0 0 1-53.620363 53.620363L512 565.620364 406.062545 671.557818a37.888 37.888 0 0 1-53.620363-53.620363L458.379636 512 352.442182 406.062545a37.888 37.888 0 0 1 53.620363-53.620363z" fill="#E80D0D" p-id="95372"></path></svg>