 <svg t="1763309604259" class="icon" viewBox="0 0 1024 1024" version="1.1" xmlns="http://www.w3.org/2000/svg" p-id="241200" width="200" height="200"><path d="M150.592 0H873.386667A150.592 150.592 0 0 1 1024 150.592V873.386667A150.592 150.592 0 0 1 873.408 1024H150.613333A150.592 150.592 0 0 1 0 873.408V150.613333A150.592 150.592 0 0 1 150.592 0z" fill="#0970FF" p-id="241201" data-spm-anchor-id="a313x.search_index.0.i57.7bc23a81x904aa" class=""></path><path d="M622.741333 238.976l111.722667 93.717333A64 64 0 0 1 757.333333 381.717333v354.304a64 64 0 0 1-64 64H330.666667a64 64 0 0 1-64-64V288a64 64 0 0 1 64-64h250.944a64 64 0 0 1 41.130666 14.933333z" fill="#FFFFFF" p-id="241202"></path><path d="M362.666667 394.688m16 0l266.666666 0q16 0 16 16l0 0q0 16-16 16l-266.666666 0q-16 0-16-16l0 0q0-16 16-16Z" fill="#00D6BD" p-id="241203" data-spm-anchor-id="a313x.search_index.0.i61.7bc23a81x904aa" class="selected"></path><path d="M362.666667 480.021333m16 0l266.666666 0q16 0 16 16l0 0q0 16-16 16l-266.666666 0q-16 0-16-16l0 0q0-16 16-16Z" fill="#00D6BD" p-id="241204" data-spm-anchor-id="a313x.search_index.0.i62.7bc23a81x904aa" class="selected"></path><path d="M362.666667 565.354667m16 0l117.333333 0q16 0 16 16l0 0q0 16-16 16l-117.333333 0q-16 0-16-16l0 0q0-16 16-16Z" fill="#00D6BD" p-id="241205" data-spm-anchor-id="a313x.search_index.0.i63.7bc23a81x904aa" class="selected"></path><path d="M661.333333 696.064l64.085334 64.106667a16 16 0 1 1-22.613334 22.613333l-64.128-64.106667 22.634667-22.613333z" fill="#055FFC" p-id="241206"></path><path d="M597.333333 565.333333a85.333333 85.333333 0 1 1 0 170.666667 85.333333 85.333333 0 0 1 0-170.666667z m0 25.6a59.733333 59.733333 0 1 0 0 119.466667 59.733333 59.733333 0 0 0 0-119.466667z" fill="#055FFC" p-id="241207"></path></svg>