 <svg t="1763309249216" class="icon" viewBox="0 0 1024 1024" version="1.1" xmlns="http://www.w3.org/2000/svg" p-id="213936" width="200" height="200"><path d="M204.8 0h614.4c112.64 0 204.8 92.16 204.8 204.8v614.4c0 112.64-92.16 204.8-204.8 204.8H204.8C92.16 1024 0 931.84 0 819.2V204.8C0 92.16 92.16 0 204.8 0z" fill="#0970FF" p-id="213937" data-spm-anchor-id="a313x.search_index.0.i41.7bc23a81x904aa" class="selected"></path><path d="M829.44 461.824v24.576c-5.12 35.84-26.624 56.32-60.416 64.512-43.008 10.24-73.728-9.216-98.304-48.128-18.432 29.696-43.008 50.176-77.824 50.176-35.84 1.024-60.416-18.432-80.896-50.176-18.432 29.696-43.008 50.176-77.824 50.176-35.84 0-60.416-18.432-78.848-47.104-9.216 3.072-11.264 11.264-15.36 16.384-23.552 26.624-53.248 36.864-87.04 27.648-32.768-8.192-53.248-29.696-58.368-63.488v-24.576c7.168-44.032 25.6-84.992 40.96-125.952 7.168-18.432 19.456-27.648 38.912-27.648h476.16c20.48 0 32.768 8.192 38.912 27.648 15.36 41.984 32.768 81.92 39.936 125.952zM273.408 808.96c-13.312-8.192-20.48-19.456-20.48-36.864 1.024-59.392 1.024-118.784 0-178.176 0-12.288 2.048-18.432 15.36-16.384 14.336 3.072 27.648-4.096 44.032-5.12 0 43.008 1.024 84.992 0 128 0 16.384 4.096 19.456 19.456 19.456 119.808-1.024 239.616-1.024 359.424 0 15.36 0 19.456-3.072 19.456-19.456-1.024-41.984 0-83.968 0-128 18.432 2.048 34.816 8.192 51.2 5.12 9.216-2.048 8.192 6.144 8.192 11.264v190.464c0 14.336-10.24 21.504-19.456 29.696H273.408z m466.944-583.68c14.336 9.216 24.576 21.504 18.432 38.912-6.144 18.432-20.48 21.504-37.888 21.504H303.104c-17.408 0-31.744-3.072-37.888-21.504-6.144-18.432 5.12-29.696 18.432-38.912h456.704z" fill="#FFFFFF" p-id="213938"></path></svg>