 <svg t="1763309358568" class="icon" viewBox="0 0 1024 1024" version="1.1" xmlns="http://www.w3.org/2000/svg" p-id="239200" width="200" height="200"><path d="M646.023529 385.054118a129.054118 129.054118 0 0 0-128.903529-127.698824h-1.355294a129.204706 129.204706 0 0 0-127.698824 130.409412 128.602353 128.602353 0 0 0 128.301177 127.548235 129.054118 129.054118 0 0 0 129.054117-130.409412z" fill="#0970FF" p-id="239201" data-spm-anchor-id="a313x.search_index.0.i50.7bc23a81x904aa" class="selected"></path><path d="M843.294118 0H180.705882A180.705882 180.705882 0 0 0 0 180.705882v662.588236a180.705882 180.705882 0 0 0 180.705882 180.705882h662.588236a180.705882 180.705882 0 0 0 180.705882-180.705882V180.705882A180.705882 180.705882 0 0 0 843.294118 0zM202.992941 712.583529a24.244706 24.244706 0 0 1-48.338823 0 195.764706 195.764706 0 0 1 121.675294-179.501176 132.517647 132.517647 0 0 1 30.117647-233.712941 24.244706 24.244706 0 0 1 16.715294 45.17647 84.630588 84.630588 0 0 0 30.117647 164.141177A23.642353 23.642353 0 0 1 376.470588 532.178824a25.6 25.6 0 0 1 0 4.517647 23.792941 23.792941 0 0 1 0 4.065882v1.656471a23.341176 23.341176 0 0 1-7.378823 16.414117 22.889412 22.889412 0 0 1-16.865883 6.324706 148.48 148.48 0 0 0-149.232941 147.425882z m554.917647 102.550589a24.244706 24.244706 0 0 1-24.244706-24.244706 216.847059 216.847059 0 0 0-433.543529 0 24.244706 24.244706 0 0 1-48.338824 0A263.981176 263.981176 0 0 1 431.585882 542.117647a177.392941 177.392941 0 0 1 18.221177-319.849412A177.392941 177.392941 0 0 1 602.352941 542.117647a263.981176 263.981176 0 0 1 180.705883 248.771765 24.244706 24.244706 0 0 1-25.148236 24.094117z m87.341177-79.510589a24.244706 24.244706 0 0 1-24.244706-24.244705 148.48 148.48 0 0 0-148.178824-147.124706 23.642353 23.642353 0 0 1-23.642353-23.491765 26.202353 26.202353 0 0 1 0-4.517647 24.395294 24.395294 0 0 1 0-4.065882 23.491765 23.491765 0 0 1 23.94353-24.094118 84.630588 84.630588 0 0 0 29.063529-164.141177 24.244706 24.244706 0 1 1 16.715294-45.17647 132.517647 132.517647 0 0 1 30.117647 233.712941 195.764706 195.764706 0 0 1 120.470589 178.748235 24.244706 24.244706 0 0 1-24.244706 24.395294z" fill="#0970FF" p-id="239202" data-spm-anchor-id="a313x.search_index.0.i47.7bc23a81x904aa" class="selected"></path></svg>