<svg t="1766308418571" class="icon" viewBox="0 0 1024 1024" version="1.1" xmlns="http://www.w3.org/2000/svg" p-id="3686" width="200" height="200"><path d="M256 70.4A57.9072 57.9072 0 0 0 198.4 128v768A57.9072 57.9072 0 0 0 256 953.6h512A57.9328 57.9328 0 0 0 825.6 896V128A57.9072 57.9072 0 0 0 768 70.4zM256 0h512a128 128 0 0 1 128 128v768a128 128 0 0 1-128 128H256a128 128 0 0 1-128-128V128a128 128 0 0 1 128-128z m166.4 768h179.2a38.4 38.4 0 0 1 0 76.8h-179.2a38.4 38.4 0 0 1 0-76.8z m0 0" p-id="3687"></path></svg>