<svg t="1764921147509" class="icon" viewBox="0 0 1024 1024" version="1.1" xmlns="http://www.w3.org/2000/svg" p-id="72949" width="200" height="200"><path d="M803.636 723.013c-43.753 0-79.225 33.686-79.225 75.228 0 41.532 35.472 75.234 79.225 75.234 43.745 0 79.23-33.702 79.23-75.234 0-41.543-35.485-75.228-79.23-75.228z m0 112.856c-21.881 0-39.626-16.832-39.626-37.615 0-20.781 17.745-37.625 39.626-37.625 21.858 0 39.617 16.844 39.617 37.625 0 20.783-17.746 37.615-39.617 37.615z m155.232-78.591c-3.561-12.279-8.743-23.88-15.236-34.71 7.397-9.444 32.877-44.761 14.513-62.221l-9.421-9.459c-15.712-14.884-55.832 8.383-65.572 14.404a164.266 164.266 0 0 0-36.985-14.477c-2.085-11.826-11.231-53.197-37.081-53.197h-10.34c-22.218 0-34.938 42.767-37.773 53.494a163.916 163.916 0 0 0-36.449 14.544c-8.958-6.3-47.396-31.536-66.157-13.738l-9.962 7.963c-16.339 15.511 10.828 56.455 15.789 63.613-6.297 10.643-11.33 22.042-14.792 34.069-10.842 1.65-57.109 10.109-57.109 35.381v9.825c0 21.893 48.523 34.063 57.383 36.107 3.52 11.914 8.592 23.238 14.891 33.79-5.221 7.774-31.331 48.521-15.131 63.902l9.441 7.445c21.305 20.244 65.839-13.006 65.839-13.006l-2.062-2.086a164.395 164.395 0 0 0 38.113 15.474c2.195 8.638 15.007 54.397 37.988 54.397H809.1c30.153 0 37.616-53.42 37.616-53.42l-2.763-0.077a164.482 164.482 0 0 0 38.627-14.708c9.408 5.958 48.855 29.389 64.62 14.433l10.477-9.955c21.018-19.925-13.19-60.781-14.148-61.919 6.501-10.786 11.704-22.389 15.295-34.624 11.755-2.827 55.995-14.891 55.976-35.756v-9.825c-0.001-27.706-52.639-35.215-55.932-35.663z m-155.232 153.82c-65.651 0-118.85-50.505-118.85-112.843 0-62.34 53.218-112.861 118.85-112.861 65.623 0 118.843 50.521 118.843 112.861 0 62.337-53.202 112.843-118.843 112.843z m-662.931-47.631c-10.853 0-19.681-8.774-19.681-19.609v-195.53c-0.034-18.803-14.807-34.109-33.308-35.003-18.588 0.87-33.392 16.261-33.361 35.139v201.4c0 49.51 40.246 89.779 89.74 89.779h458.998c0.483-21.35 19.023-50.235 23.634-57.09a175.503 175.503 0 0 1-9.884-19.086H140.705z m-31.9-314.75c25.89 13.841 56.427 20.96 90.719 20.96 57.48-0.176 110.718-25.491 147.003-68.827 36.111 42.983 88.938 68.117 146.31 68.479 56.914-0.459 109.598-25.703 145.538-68.646 36.281 43.327 89.589 68.532 147.345 68.532 34.963-0.169 65.989-7.543 92.125-21.904 61.928-33.922 100.347-98.954 100.318-169.72 0.1-20.322-3.226-40.722-9.321-59.308l-0.279-1.428c-0.417-2.053-0.984-4.015-1.785-5.907l-82.106-198.821c-14.22-42.494-55.062-86.656-102.837-86.76H205.547c-48.407 0-86.018 43.914-99.649 84.713L17.631 313.084c-0.417 1.227-0.874 3.051-1.264 4.91-6.402 19.733-9.63 40.001-9.63 60.336 0.073 71.5 39.195 136.771 102.068 170.387z m128.257-294.776h513.584c19.532 0 33.229 14.231 33.229 33.62 0 19.39-13.697 42.565-33.229 42.565H237.062c-19.501 0-38.693-19.076-38.693-38.465 0-19.387 19.192-37.72 38.693-37.72z m641.096 344.47a32.906 32.906 0 0 1 1.694-0.043h-3.391c0.57 0 1.135 0.014 1.697 0.043zM85.993 613.278c0.581 0 1.148 0.011 1.723 0.039a30.373 30.373 0 0 1 1.602-0.039h-3.325z" p-id="72950" fill="#656565"></path></svg>