<svg t="1764920869619" class="icon" viewBox="0 0 1024 1024" version="1.1" xmlns="http://www.w3.org/2000/svg" p-id="52127" width="200" height="200"><path d="M580.3008 719.5136c0-119.7056 97.0752-216.7808 216.7808-216.7808 52.3776 0 100.4032 18.5856 137.8816 49.5104V296.6016c0-80.1792-65.2288-145.408-145.408-145.408H226.048c-80.1792 0-145.408 65.2288-145.408 145.408v429.7728c0 80.1792 65.2288 145.408 145.408 145.408h416.8192c-38.656-39.1168-62.5664-92.928-62.5664-152.2688z" fill="#656565" p-id="52128" data-spm-anchor-id="a313x.search_index.0.i33.346e3a812QHPgC" class="selected"></path><path d="M797.1328 719.5136m-156.8256 0a156.8256 156.8256 0 1 0 313.6512 0 156.8256 156.8256 0 1 0-313.6512 0Z" fill="#656565" p-id="52129" data-spm-anchor-id="a313x.search_index.0.i35.346e3a812QHPgC" class="selected"></path><path d="M453.7344 522.1376c18.688-20.224 30.1056-47.2064 30.1056-76.8512 0-62.5152-50.8416-113.3568-113.3568-113.3568s-113.3568 50.8416-113.3568 113.3568c0 29.6448 11.4176 56.6272 30.1056 76.8512-41.3696 27.1872-68.7616 73.984-68.7616 127.0784 0 16.9472 13.7728 30.72 30.72 30.72s30.72-13.7728 30.72-30.72c0-49.92 40.6016-90.5728 90.5728-90.5728 49.92 0 90.5728 40.6016 90.5728 90.5728 0 16.9472 13.7728 30.72 30.72 30.72s30.72-13.7728 30.72-30.72c0-53.0944-27.392-99.8912-68.7616-127.0784z m-135.168-76.8512c0-28.6208 23.296-51.9168 51.9168-51.9168 28.6208 0 51.9168 23.296 51.9168 51.9168 0 28.6208-23.296 51.9168-51.9168 51.9168-28.6208 0-51.9168-23.296-51.9168-51.9168zM805.4272 414.5664c0-16.9472-13.7728-30.72-30.72-30.72H618.496c-16.9472 0-30.72 13.7728-30.72 30.72s13.7728 30.72 30.72 30.72h156.2112c16.9472 0 30.72-13.7728 30.72-30.72zM879.36 658.3296a28.1856 28.1856 0 0 0-39.68 3.6864l-57.5488 69.2224-25.9584-25.2416c-11.1616-10.8544-28.9792-10.5984-39.8336 0.5632s-10.5984 28.9792 0.5632 39.8336l47.7696 46.4384c5.2736 5.12 12.3392 7.9872 19.6096 7.9872 0.512 0 0.9728 0 1.4848-0.0512a28.16 28.16 0 0 0 20.1728-10.1376l77.0048-92.6208a28.07808 28.07808 0 0 0-3.584-39.68z" fill="#FFFFFF" p-id="52130"></path></svg>