<svg t="1764919756093" class="icon" viewBox="0 0 1024 1024" version="1.1" xmlns="http://www.w3.org/2000/svg" p-id="49449" width="200" height="200"><path d="M763.647509 470.785079L283.648445 4.353988c-6.143988-5.887989-15.871969-5.887989-21.759957 0.511999l-14.335972 14.847971c-5.887989 6.143988-5.631989 16.127969 0.511999 22.015957l479.999064 466.431091c1.279998 1.279998 1.535997 2.815995 1.535997 3.839992 0 1.023998-0.256 2.559995-1.535997 3.839993L247.808515 982.272081c-6.143988 5.887989-6.399988 15.871969-0.511999 22.015957l14.591972 14.847971c5.887989 6.143988 15.61597 6.399988 21.759957 0.511999l479.999064-466.43109c11.263978-10.751979 17.407966-25.343951 17.407966-41.21592s-6.143988-30.207941-17.407966-41.215919z" p-id="49450" fill="#5A7AB3"></path></svg>