<svg t="1766804534033" class="icon" viewBox="0 0 1024 1024" version="1.1" xmlns="http://www.w3.org/2000/svg" p-id="67916" width="200" height="200"><path d="M938.1 386.1l-175-218c-17.5-22.3-46.1-36.6-74.8-36.6H335c-28.6 0-55.7 12.7-74.8 36.6l-175 218C55 422.7 58.1 476.8 90 511.9l354.9 375.6 4.8 4.8c17.5 15.9 41.4 25.5 65.2 25.5h3.2c25.5-1.6 49.3-11.1 66.8-30.2l346.9-374c33.4-36.8 35-90.9 6.3-127.5z m-210 106.7L562.6 672.6c-25.5 25.5-65.2 27.1-90.7 3.2l-3.2-3.2-171.9-181.4c-11.1-12.7-11.1-33.4 1.6-44.6 14.3-12.7 33.4-11.1 46.1 1.6L506 618.8c4.8 5 12.7 5 17.5 0l156.8-167.3c12.7-12.7 31.8-14.3 46.1-3.2 12.8 11 12.8 31.7 1.7 44.5z" fill="#05B167" p-id="67917"></path></svg>