<svg t="1764902593539" class="icon" viewBox="0 0 1024 1024" version="1.1" xmlns="http://www.w3.org/2000/svg" p-id="50288" width="200" height="200"><path d="M511.99984 511.99984m-511.99984 0a511.99984 511.99984 0 1 0 1023.99968 0 511.99984 511.99984 0 1 0-1023.99968 0Z" fill="#D6DFFF" p-id="50289"></path><path d="M980.639694 718.495775C901.279718 898.431719 721.279775 1023.99968 511.99984 1023.99968a510.94384 510.94384 0 0 1-393.823877-184.799942l237.375926-86.847973 625.087805-33.85599z" fill="#5378FF" p-id="50290"></path><path d="M457.919857 364.799886m-188.639941 0a188.639941 188.639941 0 1 0 377.279882 0 188.639941 188.639941 0 1 0-377.279882 0Z" fill="#5378FF" p-id="50291"></path><path d="M501.503843 254.239921c113.247965 0 209.791934 87.647973 203.039937 205.055935-6.751998 117.439963-96.63997 201.727937-209.855935 201.727937-93.119971 0-167.135948-59.839981-190.49594-144.063955l-3.199999 0.064c-25.727992-0.896-44.799986-22.719993-44.799986-44.959986a40.319987 40.319987 0 0 1 36.159989-40.095987l4.127998-0.192h1.824a205.055936 205.055936 0 0 1 203.199936-177.535944z" fill="#FFFFFF" p-id="50292"></path><path d="M539.967831 415.29587c-2.815999-0.224-3.935999 1.855999-4.575998 4.543999l-7.327998 78.591975a5.695998 5.695998 0 0 0 6.719998 6.015998c20.223994-3.839999 29.695991-2.079999 30.59199 2.464 0.448 2.303999-1.088 7.359998-4.479998 11.647996a31.42399 31.42399 0 0 1-17.951995 11.679996l-4.351998 0.64c-3.135999 0.256-6.463998 1.759999-5.855998 4.479999 0.608 2.783999 3.103999 3.519999 6.239998 3.263999 25.439992-2.079999 40.607987-19.167994 37.535988-33.95199-2.079999-10.719997-12.159996-14.719995-29.215991-13.439996l-7.359998 0.8 3.999999-69.855978c0.192-2.815999-1.152-6.687998-3.967999-6.879998z" fill="#5378FF" p-id="50293"></path><path d="M287.07191 486.623848c7.615998 4.927998 16.927995 4.063999 20.799994-1.919999 3.935999-6.047998 0.96-14.911995-6.655998-19.839994-7.615998-4.927998-16.927995-4.063999-20.799994 1.919999-3.935999 6.047998-0.96 14.911995 6.655998 19.839994z" fill="#ECF0FF" p-id="50294"></path><path d="M373.823883 420.479869c53.343983-22.591993 84.319974-69.759978 69.247979-105.311967-10.111997-23.839993-38.367988-36.383989-71.935978-35.263989-16.511995 0.544-77.727976 150.079953-71.423978 151.103952 21.983993 3.647999 48.319985 0.448 74.111977-10.495996zM543.03983 301.567906l112.223965 16.319995a186.143942 186.143942 0 0 1 44.799986 88.607972h-0.32c-8.831997 0-22.879993-12.543996-42.079987-37.631988-35.199989-5.055998-61.119981-12.319996-77.791975-21.791993-14.815995-8.415997-26.143992-21.343993-34.04799-38.751988l-2.783999-6.751998z" fill="#5378FF" p-id="50295"></path><path d="M693.215783 151.583953c49.791984 41.119987 56.447982 151.231953 7.359998 255.48792l-0.32 0.096c-27.167992-56.767982-82.111974-70.527978-130.431959-74.751977l-12.447996-0.896-11.999996-0.639999-22.111994-0.832c-107.775966 1.919999-180.767944 33.695989-219.615931 101.695968a39.039988 39.039988 0 0 0-4.959998-0.352l-2.943999-0.032 0.863999-9.151997c6.943998-60.383981 31.42399-112.191965 76.159977-167.519948C472.959852 130.751959 630.079803 99.519969 693.215783 151.583953z" fill="#BAC9FF" p-id="50296"></path></svg>