<svg t="1764919573940" class="icon" viewBox="0 0 1024 1024" version="1.1" xmlns="http://www.w3.org/2000/svg" p-id="35081" width="200" height="200"><path d="M421.1 313.2h184.7c57.2 0 100.8-125.3 100.8-125.3 0-37.5-3.7-65.9-67.2-67.9-63.4-2-78.7 44.9-124.3 44.9-46.7 0-70.1-36.8-127.6-44.9-57.5-8.1-67.2 30.4-67.2 67.9 0 0 43.6 125.3 100.8 125.3zM615.9 352H421.1c-215.7 0-268.7 428.5-268.7 428.5 0 56.3 45.1 112.8 100.7 112.8h530.7c55.7 0 100.8-56.5 100.8-112.8 0-0.1-53-428.5-268.7-428.5zM638 681.3c13 0 23.6 10.7 23.6 23.8 0.1 13.1-10.5 23.7-23.6 23.8h-95.5v62.5c0 13.2-10.5 23.8-23.5 23.8s-23.5-10.7-23.5-23.8v-62.5h-96.1c-8.6 0.3-16.7-4.2-21-11.6-4.4-7.5-4.4-16.8 0-24.3s12.5-12 21-11.6h96.1v-30.2h-96.1c-8.6 0.3-16.7-4.2-21-11.6-4.4-7.5-4.4-16.8 0-24.3s12.5-12 21-11.6h65l-66.5-119.5c-3.1-5.5-4-12-2.4-18.1 1.6-6.1 5.6-11.3 11-14.4 11.2-6.6 25.6-2.7 32.2 8.7l80.2 143.4h4.1l80.1-143.4c3.1-5.4 8.2-9.4 14.2-11.1 6-1.6 12.5-0.8 17.9 2.4 5.4 3.1 9.4 8.3 11 14.4 1.6 6.1 0.8 12.6-2.3 18.1L577 603.5h61c13 0 23.6 10.7 23.6 23.8-0.1 13.2-10.6 23.8-23.6 23.8h-95.5v30.2H638z m0 0" fill="#234785" p-id="35082"></path></svg>