<svg t="1766308555810" class="icon" viewBox="0 0 1024 1024" version="1.1" xmlns="http://www.w3.org/2000/svg" p-id="4724" width="200" height="200"><path d="M832 160h-640A128.1 128.1 0 0 0 64 288v448a128.1 128.1 0 0 0 128 128h640A128.1 128.1 0 0 0 960 736V288A128.1 128.1 0 0 0 832 160z m64 576a64.1 64.1 0 0 1-64 64h-640a64.1 64.1 0 0 1-64-64V288a64.1 64.1 0 0 1 64-64h640a64.1 64.1 0 0 1 64 64z" fill="#333333" p-id="4725"></path><path d="M697.7 482.8a112 112 0 1 0-179.4 0A224.3 224.3 0 0 0 384 688a32 32 0 0 0 64 0 160 160 0 0 1 320 0 32 32 0 1 0 64 0 224.3 224.3 0 0 0-134.3-205.2zM560 416a48 48 0 1 1 48 48 48 48 0 0 1-48-48zM224 416h192a32 32 0 0 0 0-64H224a32 32 0 0 0 0 64zM352 480H224a32 32 0 0 0 0 64h128a32 32 0 0 0 0-64zM288 608h-64a32 32 0 1 0 0 64h64a32 32 0 0 0 0-64z" fill="#333333" p-id="4726"></path></svg>