  <svg t="1763449704188" class="icon" viewBox="0 0 1024 1024" version="1.1" xmlns="http://www.w3.org/2000/svg" p-id="10620" width="10" height="10"><path d="M900 154H124c-33.137 0-60 26.863-60 60s26.863 60 60 60h776c33.137 0 60-26.863 60-60s-26.863-60-60-60zM720 452H124c-33.137 0-60 26.863-60 60s26.863 60 60 60h596c33.137 0 60-26.863 60-60s-26.863-60-60-60zM540 750H124c-33.137 0-60 26.863-60 60s26.863 60 60 60h416c33.137 0 60-26.863 60-60s-26.863-60-60-60z" fill="#29ABE2" p-id="10621"></path></svg>