 <svg t="1763479905458" class="icon" viewBox="0 0 1024 1024" version="1.1" xmlns="http://www.w3.org/2000/svg" p-id="21896" width="200" height="200"><path d="M451.2 598.4c-9.6 0-16-3.2-22.4-9.6-38.4-38.4-60.8-89.6-60.8-144s22.4-105.6 60.8-144l182.4-182.4c38.4-38.4 89.6-60.8 144-60.8 54.4 0 105.6 22.4 144 60.8 80 80 80 208 0 288l-83.2 83.2c-12.8 12.8-32 12.8-44.8 0s-12.8-32 0-44.8l83.2-83.2c54.4-54.4 54.4-144 0-198.4-25.6-25.6-60.8-41.6-99.2-41.6-38.4 0-73.6 16-99.2 41.6l-182.4 182.4c-25.6 25.6-41.6 60.8-41.6 99.2s16 73.6 41.6 99.2c12.8 12.8 12.8 32 0 44.8-6.4 6.4-12.8 9.6-22.4 9.6z" fill="#e6e6e6" p-id="21897"></path><path d="M268.8 953.6c-51.2 0-105.6-19.2-144-60.8C86.4 854.4 64 803.2 64 748.8c0-54.4 22.4-105.6 60.8-144l83.2-83.2c12.8-12.8 32-12.8 44.8 0s12.8 32 0 44.8l-83.2 83.2c-25.6 25.6-41.6 60.8-41.6 99.2 0 38.4 16 73.6 41.6 99.2 54.4 54.4 144 54.4 198.4 0l182.4-182.4c25.6-25.6 41.6-60.8 41.6-99.2 0-38.4-16-73.6-41.6-99.2-12.8-12.8-12.8-32 0-44.8s32-12.8 44.8 0c38.4 38.4 60.8 89.6 60.8 144 0 54.4-22.4 105.6-60.8 144l-182.4 182.4c-38.4 38.4-92.8 60.8-144 60.8z" fill="#e6e6e6" p-id="21898"></path></svg>