<svg t="1763534603802" class="icon" viewBox="0 0 1024 1024" version="1.1" xmlns="http://www.w3.org/2000/svg" p-id="96608" width="200" height="200"><path d="M731.71612 258.57208 522.156314 676.775834 681.531138 676.775834 524.846586 977.88266 914.588101 576.406892 731.71612 576.406892Z" fill="#336DF5" p-id="96609"></path><path d="M120.210849 567.138808c0 68.204381-1.65264 85.371366-10.799974 153.560398 40.597627-0.002047 74.390267-31.162744 77.729316-71.621201 1.867534-22.633486 2.104941-44.295855 2.104941-80.273255L189.245132 313.796846l-69.034283 0L120.210849 567.138808z" fill="#336DF5" p-id="96610"></path><path d="M731.440851 219.272006 731.440851 46.11734 613.366665 46.11734 613.366665 454.908724Z" fill="#336DF5" p-id="96611"></path><path d="M897.776204 452.770014C880.31246 341.324806 867.00027 229.064023 860.351849 115.968222L754.73744 115.968222c4.981455 117.260657 14.96176 230.353388 37.424354 336.801792L897.776204 452.770014z" fill="#336DF5" p-id="96612"></path><path d="M588.420507 115.968222 481.138108 115.968222c-2.49789 142.206816 2.582825 234.226602-19.865443 371.433544l108.11537 0C593.501222 351.028818 585.088622 259.838933 588.420507 115.968222z" fill="#336DF5" p-id="96613"></path><path d="M347.249749 130.932028c59.869552 0 93.966115-29.112038 108.927875-84.815711L318.137711 46.116317c-14.131859 25.77606-36.59036 37.407981-69.853951 37.407981l-138.872884 0 0 47.406706L212.524325 130.931005l0 89.620134L109.411899 220.551138l0 46.573735L212.524325 267.124873l0 704.494129c76.264964-131.488707 116.428709-280.793174 116.428709-432.797124l0-271.698029 103.112426 0 0-46.573735L328.953034 220.550115l0-89.620134L347.249749 130.929981z" fill="#336DF5" p-id="96614"></path><path d="M353.065198 652.509151c0 37.659715 30.527271 68.189032 68.185962 68.189032L421.25116 313.796846 353.065198 313.796846 353.065198 652.509151z" fill="#336DF5" p-id="96615"></path></svg>