 <svg t="1763479649276" class="icon" viewBox="0 0 1024 1024" version="1.1" xmlns="http://www.w3.org/2000/svg" p-id="40784" width="200" height="200"><path d="M857.6 441.6c-19.2 0-32 19.2-32 32 12.8 96-25.6 185.6-89.6 256-121.6 121.6-326.4 121.6-454.4 0-121.6-121.6-121.6-326.4 0-454.4C352 211.2 448 179.2 544 192c12.8 0 32-12.8 32-32S563.2 128 550.4 128c-115.2-12.8-230.4 32-313.6 108.8-147.2 153.6-153.6 396.8 0 544s396.8 147.2 544 0c83.2-83.2 121.6-192 108.8-307.2 0-19.2-12.8-32-32-32z" fill="#ffffff" p-id="40785"></path><path d="M883.2 134.4c-6.4-6.4-12.8-6.4-25.6-6.4h-140.8c-19.2 0-32 12.8-32 32s12.8 32 32 32h70.4L524.8 454.4c-12.8 12.8-12.8 32 0 44.8 12.8 12.8 32 12.8 44.8 0L832 236.8v70.4c0 19.2 12.8 32 32 32s32-12.8 32-32V160c0-6.4-6.4-19.2-12.8-25.6z" fill="#ffffff" p-id="40786"></path></svg>