<?xml version="1.0" standalone="no"?>
<!DOCTYPE svg PUBLIC "-//W3C//DTD SVG 1.1//EN" "http://www.w3.org/Graphics/SVG/1.1/DTD/svg11.dtd">
<svg class="icon" width="200px" height="200.00px" viewBox="0 0 1024 1024" version="1.1" xmlns="http://www.w3.org/2000/svg">
  <g transform="translate(512 512) scale(1.08) translate(-512 -512)">
    <path fill="#336DF5" d="M819.2 593.92v266.24a48.70144 48.70144 0 0 1-40.96 40.96h-163.84c-27.648 0-25.41568 61.44 0 61.44h156.65152C824.75008 962.56 880.64 909.96736 880.64 860.16V593.92c-2.49856-24.73984-59.392-30.4128-61.44 0z m153.1904-95.60064L552.96 81.92a56.77056 56.77056 0 0 0-41.41056-20.48A47.67744 47.67744 0 0 0 471.04 81.92L50.72896 498.31936a36.864 36.864 0 0 0 0 49.80736 57.344 57.344 0 0 0 20.13184 6.77888 33.93536 33.93536 0 0 0 22.36416-9.05216L143.36 491.52v368.64a107.49952 107.49952 0 0 0 102.4 102.4h143.36a48.70144 48.70144 0 0 0 40.96-40.96v-184.32h184.32c24.43264-0.12288 28.48768-58.28608 0-61.44H409.6a48.70144 48.70144 0 0 0-40.96 40.96v184.32h-122.88a48.70144 48.70144 0 0 1-40.96-40.96V430.08L512 122.88l420.12672 416.17408a32.1536 32.1536 0 0 0 44.7488 0 29.5936 29.5936 0 0 0-4.46464-40.73472z m0 0" />
  </g>
</svg>
