<svg viewBox="0 0 1024 1024" version="1.1" xmlns="http://www.w3.org/2000/svg" width="24" height="24"><path d="M832.056889 58.083556a10.126222 10.126222 0 0 0-10.467556 0.625777 428.145778 428.145778 0 0 1-175.559111 72.192c-3.811556 0-7.623111-0.227556-11.377778-0.739555a272.156444 272.156444 0 0 1-73.557333-23.552 279.722667 279.722667 0 0 0-122.424889-29.411556h-12.458666c-61.44 3.072-122.311111 14.108444-180.963556 32.881778l-12.117333-13.084444a10.126222 10.126222 0 0 0-11.377778-2.446223l-44.657778 18.545778a10.126222 10.126222 0 0 0-5.688889 11.889778l214.812445 834.446222a10.126222 10.126222 0 0 0 17.066666 4.721778l51.655111-50.574222a10.126222 10.126222 0 0 0 2.844445-9.329778c-0.455111-2.161778-45.511111-214.926222-48.412445-262.769778a97.507556 97.507556 0 0 1 27.591112-71.68 184.945778 184.945778 0 0 1 141.539555-47.672889 413.070222 413.070222 0 0 0 123.392-17.408c28.444444-8.647111 55.296-21.674667 79.644445-38.684444 22.528-14.961778 41.472-34.702222 55.466666-57.799111a10.126222 10.126222 0 0 0 1.137778-4.664889V67.072a10.126222 10.126222 0 0 0-5.688889-8.931556l-0.398222-0.056888z" fill="#F03F49"></path></svg>