<svg t="1764920994347" class="icon" viewBox="0 0 1024 1024" version="1.1" xmlns="http://www.w3.org/2000/svg" p-id="58684" width="200" height="200"><path d="M170.666667 853.333333h311.466666c8.533333 0 17.066667 4.266667 21.333334 8.533334s8.533333 12.8 8.533333 21.333333-4.266667 17.066667-8.533333 21.333333c-4.266667 4.266667-12.8 8.533333-21.333334 8.533334H149.333333c-25.6 0-42.666667-17.066667-42.666666-42.666667v-209.066667c0-102.4 85.333333-183.466667 187.733333-183.466666h187.733333c8.533333 0 17.066667 4.266667 21.333334 8.533333 4.266667 4.266667 8.533333 12.8 8.533333 21.333333s-4.266667 17.066667-8.533333 21.333334c-4.266667 4.266667-12.8 8.533333-21.333334 8.533333H294.4c-68.266667 0-123.733333 55.466667-123.733333 119.466667V853.333333z" fill="#656565" p-id="58685" data-spm-anchor-id="a313x.search_index.0.i53.346e3a812QHPgC" class="selected"></path><path d="M883.2 610.133333c-34.133333-34.133333-85.333333-55.466667-136.533333-55.466666s-102.4 21.333333-136.533334 55.466666c-38.4 38.4-55.466667 85.333333-55.466666 136.533334-4.266667 51.2 17.066667 98.133333 55.466666 136.533333 38.4 38.4 85.333333 55.466667 136.533334 55.466667s102.4-21.333333 136.533333-55.466667 55.466667-85.333333 55.466667-136.533333-21.333333-102.4-55.466667-136.533334z m-85.333333 256c-17.066667 8.533333-34.133333 8.533333-51.2 8.533334-34.133333 0-68.266667-12.8-93.866667-38.4-25.6-25.6-38.4-59.733333-38.4-93.866667 0-25.6 8.533333-46.933333 21.333333-68.266667l183.466667 183.466667c-8.533333 4.266667-17.066667 8.533333-21.333333 8.533333z m68.266666-68.266666c0 4.266667-4.266667 12.8-8.533333 17.066666l-183.466667-179.2c21.333333-12.8 42.666667-21.333333 68.266667-21.333333 17.066667 0 34.133333 0 51.2 8.533333 17.066667 8.533333 29.866667 17.066667 42.666667 29.866667 12.8 12.8 21.333333 25.6 29.866666 42.666667 4.266667 17.066667 8.533333 34.133333 8.533334 51.2s0 34.133333-8.533334 51.2z" fill="#656565" p-id="58686" data-spm-anchor-id="a313x.search_index.0.i54.346e3a812QHPgC" class="selected"></path><path d="M482.133333 482.133333c21.333333 0 42.666667-4.266667 64-12.8s38.4-21.333333 51.2-34.133333c17.066667-17.066667 25.6-34.133333 34.133334-51.2 8.533333-21.333333 12.8-42.666667 12.8-64s-4.266667-42.666667-12.8-64-21.333333-38.4-34.133334-51.2c-17.066667-17.066667-34.133333-25.6-51.2-34.133333-21.333333-8.533333-42.666667-12.8-64-12.8-42.666667 0-85.333333 17.066667-115.2 46.933333S320 277.333333 320 320s17.066667 85.333333 46.933333 115.2 72.533333 46.933333 115.2 46.933333z m0 64C358.4 546.133333 256 443.733333 256 320s102.4-221.866667 221.866667-221.866667c123.733333 0 221.866667 102.4 221.866666 221.866667 4.266667 123.733333-93.866667 226.133333-217.6 226.133333z" fill="#656565" p-id="58687" data-spm-anchor-id="a313x.search_index.0.i50.346e3a812QHPgC" class="selected"></path></svg>