<svg t="1764921054209" class="icon" viewBox="0 0 1024 1024" version="1.1" xmlns="http://www.w3.org/2000/svg" p-id="63900" width="200" height="200"><path d="M851.84 382.60736v258.66496c0 101.37344-82.944 184.32-184.32 184.32H356.58752c-101.376 0-184.32-82.94656-184.32-184.32V382.60736c0-101.37344 82.944-184.31744 184.32-184.31744H667.52c101.376 0 184.32 82.944 184.32 184.31744z m-49.49248 1.42848c0-77.03296-63.0272-140.06016-140.06016-140.06016h-300.4672c-77.03296 0-140.0576 63.0272-140.0576 140.06016v255.808c0 77.03296 63.0272 140.06016 140.06016 140.06016h300.46208c77.03552 0 140.06272-63.0272 140.06272-140.06016v-255.808z" p-id="63901" fill="#656565"></path><path d="M361.32352 653.62688h-8.96c-16.896 0-30.72-13.824-30.72-30.72s13.824-30.72 30.72-30.72h8.96c16.896 0 30.72 13.824 30.72 30.72s-13.824 30.72-30.72 30.72zM361.32352 544.94976h-8.96c-16.896 0-30.72-13.824-30.72-30.72s13.824-30.72 30.72-30.72h8.96c16.896 0 30.72 13.824 30.72 30.72s-13.824 30.72-30.72 30.72zM361.32352 431.6928h-8.96c-16.896 0-30.72-13.82144-30.72-30.72 0-16.89344 13.824-30.72 30.72-30.72h8.96c16.896 0 30.72 13.82656 30.72 30.72 0 16.89856-13.824 30.72-30.72 30.72zM671.744 653.62688h-187.54048c-16.896 0-30.72-13.824-30.72-30.72s13.824-30.72 30.72-30.72H671.744c16.896 0 30.72 13.824 30.72 30.72s-13.824 30.72-30.72 30.72zM671.744 544.94976h-187.54048c-16.896 0-30.72-13.824-30.72-30.72s13.824-30.72 30.72-30.72H671.744c16.896 0 30.72 13.824 30.72 30.72s-13.824 30.72-30.72 30.72zM671.744 431.6928h-187.54048c-16.896 0-30.72-13.82144-30.72-30.72 0-16.89344 13.824-30.72 30.72-30.72H671.744c16.896 0 30.72 13.82656 30.72 30.72 0 16.89856-13.824 30.72-30.72 30.72z" p-id="63902" fill="#656565"></path></svg>