<svg t="1765431503045" class="icon" viewBox="0 0 1098 1024" version="1.1" xmlns="http://www.w3.org/2000/svg" p-id="32335" width="200" height="200"><path d="M591.434485 278.165671h207.519469L471.467916 94.991447v59.988284c0 65.987112 54.419371 123.245929 119.976567 123.245928z m362.629174 608.781097l-86.333138-94.031634c-1.099785 1.239758-2.369537 2.369537-3.47932 3.629291 2.299551-2.629486 3.369342-3.999219 3.47932-3.669283a212.798438 212.798438 0 0 0 51.15001-138.562937c0-117.856981-95.791291-213.748252-213.468307-213.748253s-213.398321 95.971256-213.39832 213.798243 95.64132 213.848233 213.39832 213.848233a212.218551 212.218551 0 0 0 120.866393-37.752627l-1.099785 0.879828 92.561922 94.611522c3.449326 3.519313 11.387776 4.349151 18.626362 0.649873 3.999219-1.999609 14.257215-10.178012 17.696543-13.767311a18.656356 18.656356 0 0 0 0-25.874947z m-248.651435-79.724429c-84.093575 0-152.610193-68.576606-152.610193-152.870142s68.50662-152.710174 152.610193-152.710174 152.690178 68.466628 152.690178 152.720172-68.476626 152.870143-152.690178 152.870142zM452.111697 649.783089c0-132.574107 98.600742-250.771021 219.95704-250.771021 44.121383 0 90.402343-3.999219 124.885608 20.575981V318.817731H571.508377c-66.45702 0-140.682523-82.983792-140.682523-155.759578V94.991447h-245.752001c-66.45702 0-120.396485 58.988479-120.396485 131.554306v490.054286c0 72.645811 53.899473 131.564304 120.396485 131.564304h377.926186c-66.197071-41.52189-110.978325-109.188674-110.978324-198.381254zM125.945401 325.456434c0-14.867096 11.937668-26.994728 26.514822-26.994727h211.218746c14.607147 0 26.504823 12.157625 26.504823 26.994727v6.698692c0 14.867096-11.937668 27.054716-26.504823 27.054716H152.450225c-14.577153 0-26.514821-12.18762-26.514822-27.054716v-6.698692z m182.964265 250.950986c0 14.827104-12.607538 26.994728-27.994532 26.994728H153.869947c-15.376997 0-27.934544-12.157625-27.934544-26.994728v-6.698691c0-14.827104 12.587541-26.994728 27.934544-26.994728h127.065183c15.376997 0 27.994532 12.167624 27.994532 26.994728v6.698691z m142.282211-122.146143a26.994728 26.994728 0 0 1-26.694787 27.054716h-271.946885c-14.647139 0-26.654794-12.18762-26.654794-27.054716v-6.658699a26.994728 26.994728 0 0 1 26.654794-26.994728h271.946885a26.904745 26.904745 0 0 1 26.654794 26.994728v6.658699z" fill="#FF6073" p-id="32336"></path></svg>