<svg t="1765431752117" class="icon" viewBox="0 0 1024 1024" version="1.1" xmlns="http://www.w3.org/2000/svg" p-id="37995" width="200" height="200"><path d="M51.2 0h716.8a256 256 0 0 1 256 256v716.8a51.2 51.2 0 0 1-51.2 51.2h-716.8a256 256 0 0 1-256-256v-716.8a51.2 51.2 0 0 1 51.2-51.2z" fill="#3064F5" p-id="37996"></path><path d="M836.5696 509.8368h-76.8c0-154.0608-109.2992-279.3984-243.6608-279.3984s-243.6608 125.3376-243.6608 279.3984h-76.8c0-196.4032 143.7568-356.1984 320.4608-356.1984s320.4608 159.7952 320.4608 356.1984z" fill="#FFFFFF" p-id="37997"></path><path d="M140.8 489.2672m76.8 0l12.8 0q76.8 0 76.8 76.8l0 51.2q0 76.8-76.8 76.8l-12.8 0q-76.8 0-76.8-76.8l0-51.2q0-76.8 76.8-76.8Z" fill="#FFFFFF" p-id="37998"></path><path d="M716.8 489.2672m76.8 0l12.8 0q76.8 0 76.8 76.8l0 51.2q0 76.8-76.8 76.8l-12.8 0q-76.8 0-76.8-76.8l0-51.2q0-76.8 76.8-76.8Z" fill="#FFFFFF" p-id="37999"></path><path d="M649.984 818.6496a448.5504 448.5504 0 0 1-157.8496 28.032 38.4 38.4 0 1 1 0.6528-76.7872 372.0832 372.0832 0 0 0 130.944-23.424c109.696-39.9232 175.4496-114.2528 160.9984-153.9456a38.4 38.4 0 0 1 72.1792-26.2656c32.4224 89.1392-56.512 197.6448-206.912 252.3904z" fill="#FFFFFF" p-id="38000"></path></svg>