<svg t="1764919700353" class="icon" viewBox="0 0 1024 1024" version="1.1" xmlns="http://www.w3.org/2000/svg" p-id="41521" width="200" height="200"><path d="M798.3125 92.09375H225.59375c-31.21875 0-56.53125 24.9375-57.1875 56.0625h3.9375c-1.3125 0-2.53125 0.09375-3.9375 0.1875v726.28125c0 31.59375 25.6875 57.28125 57.28125 57.28125h572.625c31.5 0 57.1875-25.6875 57.1875-57.28125V148.25c-0.65625-31.21875-26.0625-56.15625-57.1875-56.15625zM528.875 712.625c0 16.5-13.5 30-30 30H362c-16.5 0-30-13.5-30-30s13.5-30 30-30h136.875c16.5 0 30 13.5 30 30z m84.375-200.625c0 16.5-13.5 30-30 30H362c-16.5 0-30-13.5-30-30s13.5-30 30-30h221.25c16.5 0 30 13.5 30 30z m78.75-200.625c0 16.5-13.5 30-30 30H362c-16.5 0-30-13.5-30-30s13.5-30 30-30h300c16.5 0 30 13.5 30 30z" fill="#234785" p-id="41522"></path></svg>