<svg t="1765428123290" class="icon" viewBox="0 0 1024 1024" version="1.1" xmlns="http://www.w3.org/2000/svg" p-id="7225" width="200" height="200"><path d="M421.647059 542.117647a60.235294 60.235294 0 0 1 60.235294 60.235294v240.941177a60.235294 60.235294 0 0 1-60.235294 60.235294H180.705882a60.235294 60.235294 0 0 1-60.235294-60.235294V602.352941a60.235294 60.235294 0 0 1 60.235294-60.235294z m150.588235 120.470588a30.117647 30.117647 0 0 1 30.117647 30.117647v180.705883a30.117647 30.117647 0 1 1-60.235294 0V692.705882a30.117647 30.117647 0 0 1 30.117647-30.117647z m301.176471 45.176471a30.117647 30.117647 0 0 1 30.117647 30.117647v135.529412a30.117647 30.117647 0 1 1-60.235294 0v-135.529412a30.117647 30.117647 0 0 1 30.117647-30.117647z m-150.588236 30.117647a30.117647 30.117647 0 0 1 30.117647 30.117647v105.411765a30.117647 30.117647 0 1 1-60.235294 0v-105.411765a30.117647 30.117647 0 0 1 30.117647-30.117647z m-301.17647-135.529412H180.705882v240.941177h240.941177V602.352941z m-82.82353 45.176471a37.647059 37.647059 0 0 1 37.647059 37.647059v75.294117a37.647059 37.647059 0 0 1-37.647059 37.647059h-75.294117a37.647059 37.647059 0 0 1-37.647059-37.647059v-75.294117a37.647059 37.647059 0 0 1 37.647059-37.647059zM316.235294 707.764706h-30.117647v30.117647h30.117647v-30.117647z m406.588235-165.647059a30.117647 30.117647 0 0 1 30.117647 30.117647v105.411765a30.117647 30.117647 0 1 1-60.235294 0v-105.411765a30.117647 30.117647 0 0 1 30.117647-30.117647z m150.588236 0a30.117647 30.117647 0 0 1 30.117647 30.117647v75.294118a30.117647 30.117647 0 1 1-60.235294 0v-75.294118a30.117647 30.117647 0 0 1 30.117647-30.117647z m-301.176471 0a30.117647 30.117647 0 0 1 30.117647 30.117647v30.117647a30.117647 30.117647 0 1 1-60.235294 0v-30.117647a30.117647 30.117647 0 0 1 30.117647-30.117647zM421.647059 120.470588a60.235294 60.235294 0 0 1 60.235294 60.235294v240.941177a60.235294 60.235294 0 0 1-60.235294 60.235294H180.705882a60.235294 60.235294 0 0 1-60.235294-60.235294V180.705882a60.235294 60.235294 0 0 1 60.235294-60.235294z m421.647059 0a60.235294 60.235294 0 0 1 60.235294 60.235294v240.941177a60.235294 60.235294 0 0 1-60.235294 60.235294H602.352941a60.235294 60.235294 0 0 1-60.235294-60.235294V180.705882a60.235294 60.235294 0 0 1 60.235294-60.235294z m-421.647059 60.235294H180.705882v240.941177h240.941177V180.705882z m421.647059 0H602.352941v240.941177h240.941177V180.705882z m-504.470589 45.176471a37.647059 37.647059 0 0 1 37.647059 37.647059v75.294117a37.647059 37.647059 0 0 1-37.647059 37.647059h-75.294117a37.647059 37.647059 0 0 1-37.647059-37.647059v-75.294117a37.647059 37.647059 0 0 1 37.647059-37.647059z m421.647059 0a37.647059 37.647059 0 0 1 37.647059 37.647059v75.294117a37.647059 37.647059 0 0 1-37.647059 37.647059h-75.294117a37.647059 37.647059 0 0 1-37.647059-37.647059v-75.294117a37.647059 37.647059 0 0 1 37.647059-37.647059zM316.235294 286.117647h-30.117647v30.117647h30.117647v-30.117647z m421.647059 0h-30.117647v30.117647h30.117647v-30.117647z" fill="#3D7DFD" p-id="7226"></path></svg>