<svg t="1765431425756" class="icon" viewBox="0 0 1024 1024" version="1.1" xmlns="http://www.w3.org/2000/svg" p-id="26318" width="200" height="200"><path d="M0 0h1024v1024H0z" fill="#202425" opacity=".01" p-id="26319"></path><path d="M238.928 68.272a68.272 68.272 0 0 0-68.256 68.256v34.144c0 18.848 15.28 34.128 34.128 34.128h614.4a34.128 34.128 0 0 0 34.128-34.128V136.528a68.272 68.272 0 0 0-68.256-68.256H238.928z m-68.256 170.656A68.272 68.272 0 0 0 102.4 307.2v34.128a34.128 34.128 0 0 0 34.128 34.144h750.944a34.128 34.128 0 0 0 34.128-34.144V307.2a68.272 68.272 0 0 0-68.272-68.272H170.672z" fill="#FFAA44" p-id="26320"></path><path d="M512 546.128c62.4 0 116.864-42.288 132.32-102.736 4.656-18.256 19.472-33.792 38.352-33.792H921.6a68.272 68.272 0 0 1 68.272 68.272V819.2a136.528 136.528 0 0 1-136.544 136.528H170.672A136.528 136.528 0 0 1 34.128 819.2V477.872A68.272 68.272 0 0 1 102.4 409.6h238.928c18.848 0 33.696 15.52 38.336 33.792A136.608 136.608 0 0 0 512 546.128z" fill="#FF7744" p-id="26321"></path><path d="M324.272 750.928a51.2 51.2 0 0 1 51.2-51.2h273.056a51.2 51.2 0 0 1 0 102.4H375.472a51.2 51.2 0 0 1-51.2-51.2z" fill="#FFFFFF" p-id="26322"></path></svg>