<svg t="1763450170565" class="icon" viewBox="0 0 1024 1024" version="1.1" xmlns="http://www.w3.org/2000/svg" p-id="18937" width="20" height="20"><path d="M514.73066667 75.09333333c-232.10666667 0-424.89173333 206.98453333-408.50773334 439.63733334C120.96853333 727.17653333 305.01546667 894.29333333 514.73066667 894.29333333s393.76213333-167.1168 408.50773333-379.56266666C939.6224 282.07786667 746.83733333 75.09333333 514.73066667 75.09333333z" fill="#205686" p-id="18938"></path><path d="M331.776 823.296c23.48373333 16.93013333 60.07466667 39.3216 108.68053333 54.61333333 41.50613333 12.56106667 77.55093333 15.83786667 104.31146667 16.384 23.48373333-3.82293333 47.5136-7.09973333 70.99733333-10.92266666-39.3216-2.18453333-92.84266667-9.8304-152.3712-31.67573334-45.32906667-16.93013333-81.92-37.13706667-109.7728-55.7056-7.64586667-3.2768-16.93013333-1.09226667-21.84533333 5.46133334a18.0224 18.0224 0 0 0 0 21.84533333z m5.46133333-70.99733333c38.22933333 27.30666667 92.29653333 59.52853333 161.65546667 84.65066666C555.69066667 857.7024 607.57333333 867.5328 648.53333333 872.448c16.384-7.09973333 32.768-14.7456 49.152-21.84533333-46.96746667-4.9152-108.1344-15.83786667-175.85493333-39.86773334C450.28693333 785.06666667 394.0352 752.29866667 353.62133333 724.992c-7.64586667-4.36906667-17.47626667-2.18453333-21.84533333 5.46133333s-2.18453333 17.47626667 5.46133333 21.84533334zM348.16 484.69333333c37.6832 46.42133333 104.8576 117.41866667 207.53066667 174.76266667 110.31893333 61.71306667 211.89973333 80.82773333 273.06666666 87.38133333 7.09973333-9.28426667 14.7456-18.0224 21.84533334-27.30666666-50.7904-6.00746667-113.59573333-18.56853333-181.31626667-45.32906667C520.73813333 615.76533333 425.71093333 521.28426667 375.46666667 462.848c-8.192-2.18453333-16.384 0-21.84533334 5.46133333-6.00746667 6.5536-5.46133333 14.7456-5.46133333 16.384z" fill="#FFFFFF" p-id="18939"></path><path d="M342.69866667 577.536c51.88266667 51.88266667 140.35626667 125.61066667 267.60533333 174.76266667 62.80533333 24.02986667 121.2416 37.13706667 169.30133333 43.69066666 10.92266667-9.28426667 21.84533333-18.0224 32.768-27.30666666-50.24426667-7.09973333-110.31893333-20.20693333-175.85493333-45.32906667C509.26933333 674.2016 419.15733333 602.65813333 364.544 550.22933333c-7.64586667-3.2768-16.93013333-1.09226667-21.84533333 5.46133334a18.0224 18.0224 0 0 0 0 21.84533333z" fill="#FFFFFF" p-id="18940"></path><path d="M342.69866667 664.91733333c44.78293333 39.86773333 117.41866667 93.93493333 218.45333333 131.072 62.2592 22.9376 118.51093333 33.31413333 163.84 38.22933334 10.92266667-7.09973333 21.84533333-14.7456 32.768-21.84533334-48.60586667-6.5536-108.68053333-18.56853333-174.76266667-43.69066666-101.03466667-38.22933333-175.3088-90.65813333-223.91466666-131.072-7.64586667-4.36906667-17.47626667-2.18453333-21.84533334 5.46133333s-2.18453333 17.47626667 5.46133334 21.84533333z m365.3632-527.01866666c-23.48373333-16.93013333-60.07466667-39.3216-108.68053334-54.61333334-41.50613333-12.56106667-77.55093333-15.83786667-104.31146666-16.384-23.48373333 3.82293333-47.5136 7.09973333-70.99733334 10.92266667 39.3216 2.18453333 92.84266667 9.8304 152.3712 31.67573333 45.32906667 16.93013333 81.92 37.13706667 109.7728 55.7056 7.64586667 3.2768 16.93013333 1.09226667 21.84533334-5.46133333 4.9152-6.5536 4.9152-15.29173333 0-21.84533333z m-5.46133334 70.99733333c-38.22933333-27.30666667-92.29653333-59.52853333-161.65546666-84.65066667-56.79786667-20.75306667-108.68053333-30.58346667-149.64053334-35.49866666-16.384 7.09973333-32.768 14.7456-49.152 21.84533333 46.96746667 4.9152 108.1344 15.83786667 175.85493334 39.86773333 71.54346667 25.66826667 127.7952 57.89013333 168.20906666 85.74293334 7.64586667 4.36906667 17.47626667 2.18453333 21.84533334-5.46133334s2.18453333-17.47626667-5.46133334-21.84533333z m-10.92266666 267.60533333c-37.6832-46.42133333-104.8576-117.41866667-207.53066667-174.76266666-110.31893333-61.71306667-211.89973333-80.82773333-273.06666667-87.38133334-7.09973333 9.28426667-14.7456 18.0224-21.84533333 27.30666667 50.7904 6.00746667 113.59573333 18.56853333 181.31626667 45.32906667C519.09973333 345.42933333 614.67306667 439.9104 664.3712 498.34666667c8.192 2.18453333 16.384 0 21.84533333-5.46133334 6.00746667-6.5536 5.46133333-15.29173333 5.46133334-16.384z" fill="#FFFFFF" p-id="18941"></path><path d="M697.1392 383.65866667c-51.88266667-51.88266667-140.35626667-125.61066667-267.60533333-174.76266667-62.80533333-24.02986667-121.2416-37.13706667-169.30133334-43.69066667-10.92266667 9.28426667-21.84533333 18.0224-32.768 27.30666667 50.24426667 7.09973333 110.31893333 20.20693333 175.85493334 45.32906667 127.7952 49.152 217.36106667 120.69546667 271.9744 173.12426666 7.64586667 3.2768 16.93013333 1.09226667 21.84533333-5.46133333 4.9152-6.5536 4.9152-15.29173333 0-21.84533333z" fill="#FFFFFF" p-id="18942"></path><path d="M697.1392 296.27733333c-44.78293333-39.86773333-117.41866667-93.93493333-218.45333333-131.072-62.2592-22.9376-118.51093333-33.31413333-163.84-38.22933333-10.92266667 7.09973333-21.84533333 14.7456-32.768 21.84533333 48.60586667 6.5536 108.68053333 18.56853333 174.76266666 43.69066667 101.03466667 38.22933333 175.3088 90.65813333 223.91466667 131.072 7.64586667 4.36906667 17.47626667 2.18453333 21.84533333-5.46133333s2.18453333-17.47626667-5.46133333-21.84533334z" fill="#FFFFFF" p-id="18943"></path></svg>