<svg t="1765430343873" class="icon" viewBox="0 0 1029 1024" version="1.1" xmlns="http://www.w3.org/2000/svg" p-id="45973" width="200" height="200"><path d="M851.536842 70.063158c21.557895 0 37.726316 16.168421 37.726316 37.726316s-16.168421 37.726316-37.726316 37.726315h-26.947368v533.557895c0 21.557895-16.168421 37.726316-37.726316 37.726316H97.010526c-21.557895 0-37.726316-16.168421-37.726315-37.726316V145.515789H37.726316c-21.557895 0-37.726316-16.168421-37.726316-37.726315s16.168421-37.726316 37.726316-37.726316h813.810526z" fill="#1677FF" p-id="45974"></path><path d="M980.884211 156.294737H161.684211c-21.557895 0-43.115789 16.168421-43.11579 43.115789 0 21.557895 21.557895 43.115789 43.11579 43.11579h21.557894v522.778947c0 21.557895 16.168421 37.726316 37.726316 37.726316h129.347368v118.568421c0 26.947368 21.557895 48.505263 48.505264 48.505263s48.505263-21.557895 48.505263-48.505263v-118.568421h220.968421v118.568421c0 26.947368 21.557895 48.505263 48.505263 48.505263s48.505263-21.557895 48.505263-48.505263v-118.568421h140.126316c21.557895 0 37.726316-16.168421 37.726316-37.726316V242.526316h37.726316c21.557895 0 43.115789-16.168421 43.115789-43.11579 0-21.557895-21.557895-43.115789-43.115789-43.115789z m-409.6 495.831579c0 26.947368-21.557895 48.505263-48.505264 48.505263H280.252632c-26.947368 0-48.505263-21.557895-48.505264-48.505263s21.557895-48.505263 48.505264-48.505263h242.526315c26.947368 0 48.505263 21.557895 48.505264 48.505263z m258.694736-145.51579c0 26.947368-21.557895 48.505263-48.505263 48.505263H280.252632c-26.947368 0-48.505263-21.557895-48.505264-48.505263s21.557895-48.505263 48.505264-48.505263h501.221052c26.947368 0 48.505263 21.557895 48.505263 48.505263z m0-140.126315c0 26.947368-21.557895 48.505263-48.505263 48.505263H280.252632c-26.947368 0-48.505263-21.557895-48.505264-48.505263s21.557895-48.505263 48.505264-48.505264h501.221052c26.947368 0 48.505263 21.557895 48.505263 48.505264z" fill="#D1E3FF" p-id="45975"></path><path d="M722.189474 975.494737c-32.336842 0-59.284211-26.947368-59.284211-59.284211v-107.789473H458.105263v107.789473c0 32.336842-26.947368 59.284211-59.28421 59.284211s-59.284211-26.947368-59.284211-59.284211v-107.789473H220.968421c-26.947368 0-48.505263-21.557895-48.505263-48.505264V253.305263h-10.778947c-26.947368 0-48.505263-21.557895-48.505264-48.505263s21.557895-48.505263 48.505264-48.505263h819.2c26.947368 0 48.505263 21.557895 48.505263 48.505263s-21.557895 48.505263-48.505263 48.505263h-26.947369v512c0 26.947368-21.557895 48.505263-48.505263 48.505263h-123.957895v107.789474c0 26.947368-26.947368 53.894737-59.28421 53.894737z m-280.252632-183.242105h237.136842V916.210526c0 21.557895 16.168421 43.115789 43.11579 43.11579 21.557895 0 43.115789-16.168421 43.115789-43.11579v-123.957894h140.126316c16.168421 0 26.947368-10.778947 26.947368-26.947369V231.747368h48.505264c16.168421 0 32.336842-16.168421 32.336842-32.336842s-16.168421-32.336842-32.336842-32.336842H161.684211c-16.168421 0-32.336842 16.168421-32.336843 32.336842s16.168421 32.336842 32.336843 32.336842h32.336842v533.557895c0 16.168421 10.778947 26.947368 26.947368 26.947369h140.126316V916.210526c0 21.557895 16.168421 43.115789 43.115789 43.11579 21.557895 0 43.115789-16.168421 43.11579-43.11579v-123.957894h-5.389474z m80.842105-86.231579H280.252632c-32.336842 0-59.284211-26.947368-59.284211-59.284211s26.947368-59.284211 59.284211-59.28421h242.526315c32.336842 0 59.284211 26.947368 59.284211 59.28421 0 37.726316-26.947368 59.284211-59.284211 59.284211z m-242.526315-91.621053c-21.557895 0-37.726316 16.168421-37.726316 37.726316s16.168421 37.726316 37.726316 37.726316h242.526315c21.557895 0 37.726316-16.168421 37.726316-37.726316s-16.168421-37.726316-37.726316-37.726316H280.252632z m501.221052-48.505263H280.252632C247.915789 565.894737 220.968421 538.947368 220.968421 506.610526s26.947368-59.284211 59.284211-59.28421h501.221052c32.336842 0 59.284211 26.947368 59.284211 59.28421s-26.947368 59.284211-59.284211 59.284211zM280.252632 468.884211c-21.557895 0-37.726316 16.168421-37.726316 37.726315s16.168421 37.726316 37.726316 37.726316h501.221052c21.557895 0 37.726316-16.168421 37.726316-37.726316s-16.168421-37.726316-37.726316-37.726315H280.252632z m501.221052-43.11579H280.252632C247.915789 425.768421 220.968421 398.821053 220.968421 366.484211s26.947368-59.284211 59.284211-59.284211h501.221052c32.336842 0 59.284211 26.947368 59.284211 59.284211-5.389474 32.336842-26.947368 59.284211-59.284211 59.28421zM280.252632 328.757895c-21.557895 0-43.115789 16.168421-43.11579 37.726316 0 21.557895 21.557895 37.726316 43.11579 37.726315h501.221052c21.557895 0 37.726316-16.168421 37.726316-37.726315 0-21.557895-16.168421-37.726316-37.726316-37.726316H280.252632z" fill="#F1F9FF" p-id="45976"></path></svg>