<svg t="1763649825585" class="icon" viewBox="0 0 1024 1024" version="1.1" xmlns="http://www.w3.org/2000/svg" p-id="180107" width="200" height="200"><path d="M54.848 0m256 0l438.848 0q256 0 256 256l0 512q0 256-256 256l-438.848 0q-256 0-256-256l0-512q0-256 256-256Z" fill="#FDE5CE" p-id="180108"></path><path d="M296.896 209.216c-16.64 76.8-43.52 147.2-80.64 210.56l37.76 23.68c21.12-35.84 39.68-75.52 55.68-119.04h124.8v-43.52h-110.08c5.76-19.84 11.52-40.96 16.64-62.72l-44.16-8.96z m-17.92 195.84v42.24h39.04v83.2h-83.84v42.24h83.84v145.28c0 8.96-6.4 16-18.56 20.48l19.2 39.68c48.64-14.08 91.52-31.36 128.64-52.48l-7.68-40.96c-25.6 15.36-51.2 27.52-76.8 37.12v-149.12h78.72v-42.24h-78.72v-83.2h53.12v-42.24h-136.96z m174.72-119.68v42.24h152.32v63.36h-126.72v403.2h42.88v-138.24h83.84v136.32h42.88v-136.32h87.04v71.68c0 16-7.68 24.32-22.4 24.32l-34.56-1.92 10.88 41.6h37.12c34.56 0 51.84-18.56 51.84-54.4v-346.24h-129.92v-63.36h156.8v-42.24h-50.56l20.48-14.72c-12.8-19.2-30.72-40.96-53.76-65.92l-30.72 18.56c19.2 21.76 35.84 42.88 49.28 62.08h-91.52v-74.88h-42.88v74.88h-152.32z m152.32 147.2v72.32h-83.84v-72.32h83.84z m-83.84 113.28h83.84v69.76h-83.84v-69.76z m213.76 69.76h-87.04v-69.76h87.04v69.76z m0-110.72h-87.04v-72.32h87.04v72.32z" fill="#80460F" p-id="180109"></path></svg>