  <svg t="1763479676673" class="icon" viewBox="0 0 1024 1024" version="1.1" xmlns="http://www.w3.org/2000/svg" p-id="41836" width="200" height="200"><path d="M801.9 144.2c-3.9 0-7.8 1.5-10.8 4.4l-44.6 44.6 89.6 89.6 44.6-44.6c5.9-5.9 5.9-15.7 0-21.5l-68.1-68.1c-2.9-3-6.8-4.4-10.7-4.4zM277 751.8l99.4-10.3 412.7-412.7-89.6-89.6-412.7 412.7-9.8 99.9z m650.2-467.6L406.7 804.7l-203.2 20.6 20.6-202.7 452.4-452.4 68.1-68.1c30.4-30.4 83.7-30.4 114.1 0l68.1 68.1c15.2 15.2 23.5 35.7 23.5 57.3 0.4 21-7.9 41.5-23.1 56.7z m0 594.9c18.1 0 32.8 14.7 32.8 32.8 0 18.1-14.7 32.8-32.8 32.8H96.8C78.7 944.7 64 930 64 911.9c0-18.1 14.7-32.8 32.8-32.8h830.4z" fill="#F5F5F5" p-id="41837"></path></svg>