<svg t="1763450083242" class="icon" viewBox="0 0 1024 1024" version="1.1" xmlns="http://www.w3.org/2000/svg" p-id="14787" width="15" height="15"><path d="M663.552 709.632c-1.024-3.072-3.072-7.168-6.144-9.216-11.264-11.264-22.528-22.528-33.792-34.816l-72.704-72.704-36.864-36.864c-1.024-1.024-3.072-3.072-5.12 0-19.456 20.48-39.936 39.936-59.392 60.416-14.336 14.336-28.672 29.696-43.008 44.032-13.312 14.336-27.648 27.648-41.984 41.984-5.12 5.12-7.168 12.288-8.192 19.456 0 6.144 2.048 11.264 4.096 17.408 6.144 15.36 20.48 25.6 39.936 26.624 2.048 0 7.168-1.024 11.264-2.048 4.096-2.048 9.216-3.072 12.288-6.144 10.24-9.216 20.48-19.456 30.72-29.696 1.024-1.024 1.024-3.072 0-4.096-13.312-13.312-26.624-27.648-39.936-40.96-2.048-2.048-2.048-3.072 0-5.12 17.408-16.384 33.792-33.792 51.2-51.2 2.048-2.048 3.072-2.048 4.096 0l25.6 25.6 14.336 14.336c1.024 1.024 2.048 2.048 4.096 1.024 13.312-13.312 26.624-26.624 38.912-40.96 2.048-2.048 3.072-2.048 5.12 0 4.096 5.12 9.216 9.216 13.312 14.336l36.864 36.864c2.048 2.048 1.024 3.072 0 4.096-13.312 13.312-26.624 26.624-39.936 40.96-1.024 1.024-2.048 2.048 0 4.096 8.192 8.192 17.408 16.384 25.6 24.576 9.216 9.216 20.48 13.312 32.768 13.312 2.048 0 5.12-1.024 7.168-2.048 5.12-2.048 10.24-3.072 14.336-6.144 12.288-10.24 18.432-22.528 16.384-38.912 1.024-2.048 0-5.12-1.024-8.192z m0 0M509.952 439.296c2.048 2.048 3.072 1.024 4.096 0l12.288-12.288 62.464-62.464c22.528-22.528 46.08-45.056 68.608-68.608 7.168-7.168 9.216-16.384 9.216-25.6 0-6.144-2.048-11.264-4.096-17.408-7.168-15.36-19.456-21.504-34.816-22.528-4.096 0-7.168 1.024-11.264 2.048-6.144 1.024-12.288 4.096-17.408 8.192L573.44 266.24c-5.12 5.12-5.12 5.12 0 10.24 12.288 12.288 24.576 25.6 36.864 37.888 2.048 2.048 2.048 2.048 0 4.096l-11.264 11.264c-13.312 13.312-26.624 27.648-39.936 40.96-1.024 1.024-2.048 1.024-4.096 0-13.312-13.312-25.6-26.624-38.912-39.936-2.048-2.048-3.072-2.048-5.12 0L471.04 370.688c-1.024 2.048-2.048 1.024-4.096 0-9.216-9.216-18.432-18.432-27.648-26.624l-24.576-24.576c-1.024-1.024-2.048-2.048 0-4.096l39.936-39.936c2.048-2.048 2.048-3.072 0-5.12-9.216-8.192-17.408-16.384-25.6-25.6-8.192-8.192-18.432-11.264-30.72-13.312-3.072 1.024-6.144 1.024-9.216 2.048-7.168 2.048-14.336 6.144-19.456 11.264-5.12 6.144-8.192 13.312-11.264 21.504-3.072 10.24-1.024 19.456 6.144 26.624 10.24 11.264 20.48 21.504 31.744 31.744 20.48 21.504 40.96 43.008 62.464 63.488l51.2 51.2z m0 0M227.328 494.592c-1.024-1.024-3.072-2.048-4.096-3.072-6.144-6.144-11.264-12.288-17.408-18.432-9.216-9.216-19.456-15.36-34.816-16.384-4.096-1.024-9.216 2.048-15.36 4.096-7.168 3.072-13.312 7.168-17.408 14.336-2.048 5.12-4.096 9.216-6.144 14.336-3.072 8.192-2.048 16.384 1.024 23.552 3.072 8.192 9.216 14.336 16.384 18.432 4.096 3.072 8.192 5.12 14.336 5.12h16.384c6.144 0 11.264-3.072 16.384-7.168 4.096-3.072 7.168-7.168 11.264-11.264 6.144-6.144 12.288-12.288 19.456-17.408 2.048-2.048 3.072-3.072 0-6.144z m0 0" fill="#E90003" p-id="14788"></path><path d="M512 19.456C239.616 19.456 19.456 239.616 19.456 512S239.616 1004.544 512 1004.544 1004.544 784.384 1004.544 512 784.384 19.456 512 19.456zM234.496 599.04c-6.144 4.096-12.288 7.168-19.456 10.24-5.12 2.048-11.264 4.096-16.384 5.12-3.072 1.024-7.168 1.024-10.24 2.048-11.264 2.048-22.528 1.024-34.816 0-5.12 0-9.216-2.048-14.336-3.072-4.096-1.024-8.192-2.048-12.288-4.096-5.12-2.048-10.24-5.12-15.36-8.192-6.144-4.096-12.288-7.168-17.408-12.288s-10.24-10.24-15.36-16.384c-5.12-6.144-9.216-13.312-13.312-19.456-4.096-6.144-7.168-13.312-8.192-21.504-3.072-12.288-4.096-23.552-3.072-36.864V481.28c1.024-5.12 2.048-11.264 3.072-16.384 2.048-9.216 6.144-17.408 11.264-25.6 8.192-14.336 18.432-26.624 30.72-36.864 8.192-6.144 16.384-12.288 26.624-15.36 5.12-2.048 9.216-4.096 14.336-5.12 4.096-1.024 9.216-2.048 13.312-2.048h40.96c5.12 0 11.264 2.048 16.384 4.096 7.168 3.072 13.312 6.144 19.456 9.216 6.144 4.096 12.288 8.192 17.408 12.288 6.144 5.12 13.312 10.24 19.456 16.384 6.144 6.144 11.264 12.288 17.408 18.432 2.048 2.048 2.048 2.048 4.096 0 5.12-6.144 11.264-12.288 17.408-18.432 7.168-8.192 15.36-15.36 22.528-23.552 1.024-1.024 2.048-2.048 3.072 0l36.864 36.864c5.12 5.12 10.24 10.24 16.384 15.36 1.024 1.024 1.024 2.048 0 4.096l-38.912 38.912c-3.072 3.072-3.072 4.096 0 7.168 13.312 12.288 25.6 25.6 38.912 37.888 3.072 3.072 0 4.096-1.024 5.12l-48.128 48.128c-4.096 4.096-4.096 4.096-9.216 0-12.288-12.288-24.576-24.576-37.888-36.864-2.048-2.048-4.096-1.024-5.12 1.024-9.216 9.216-19.456 19.456-29.696 28.672-6.144 5.12-13.312 10.24-19.456 14.336z m508.928 145.408c-2.048 12.288-7.168 24.576-13.312 34.816-6.144 12.288-13.312 23.552-24.576 31.744-7.168 6.144-15.36 11.264-23.552 15.36-7.168 4.096-14.336 7.168-21.504 10.24-6.144 2.048-12.288 3.072-18.432 5.12-7.168 2.048-15.36 2.048-22.528 1.024-6.144 0-12.288-1.024-18.432-3.072-9.216-3.072-17.408-6.144-25.6-9.216-5.12-2.048-9.216-5.12-14.336-8.192-7.168-4.096-13.312-9.216-19.456-14.336-7.168-6.144-14.336-13.312-20.48-20.48-2.048-2.048-4.096-5.12-6.144-7.168-1.024-2.048-2.048-2.048-4.096 0-7.168 8.192-14.336 16.384-22.528 23.552-4.096 4.096-9.216 8.192-13.312 11.264-9.216 7.168-18.432 12.288-28.672 16.384-9.216 4.096-17.408 6.144-27.648 8.192-12.288 2.048-23.552 2.048-35.84 1.024-7.168 0-14.336-3.072-20.48-5.12-8.192-2.048-15.36-6.144-22.528-10.24-11.264-7.168-21.504-15.36-30.72-25.6-8.192-9.216-15.36-19.456-20.48-31.744-3.072-6.144-5.12-13.312-6.144-19.456-1.024-7.168-2.048-15.36-3.072-22.528h1.024v-14.336c1.024-7.168 2.048-13.312 4.096-19.456 4.096-10.24 9.216-20.48 13.312-30.72 6.144-12.288 14.336-21.504 23.552-30.72 29.696-28.672 58.368-58.368 87.04-87.04l45.056-45.056c2.048-2.048 2.048-3.072 0-5.12-20.48-20.48-41.984-40.96-62.464-62.464l-80.896-80.896c-4.096-4.096-6.144-8.192-9.216-12.288-4.096-7.168-8.192-15.36-12.288-23.552-3.072-5.12-4.096-11.264-6.144-17.408-5.12-15.36-4.096-30.72-3.072-47.104 0-6.144 3.072-13.312 5.12-19.456 2.048-7.168 5.12-13.312 8.192-19.456 6.144-12.288 15.36-21.504 25.6-30.72 8.192-8.192 17.408-14.336 28.672-18.432 8.192-3.072 15.36-6.144 23.552-9.216 9.216-2.048 18.432-3.072 28.672-2.048 7.168 0 15.36 1.024 22.528 2.048 7.168 1.024 14.336 4.096 20.48 7.168 8.192 3.072 16.384 7.168 23.552 12.288 11.264 6.144 20.48 14.336 29.696 24.576 5.12 5.12 9.216 10.24 14.336 16.384 2.048 2.048 3.072 1.024 4.096 0 9.216-10.24 19.456-20.48 29.696-29.696 10.24-8.192 21.504-16.384 33.792-21.504 7.168-3.072 14.336-5.12 22.528-8.192 9.216-3.072 18.432-4.096 28.672-3.072 7.168 1.024 13.312 2.048 20.48 3.072 8.192 2.048 15.36 4.096 23.552 8.192 7.168 3.072 14.336 7.168 20.48 11.264 6.144 4.096 12.288 8.192 17.408 13.312 7.168 7.168 13.312 15.36 18.432 24.576 4.096 7.168 8.192 14.336 11.264 22.528 5.12 12.288 7.168 24.576 6.144 37.888-1.024 7.168-1.024 14.336-2.048 21.504-1.024 5.12-3.072 10.24-5.12 15.36-2.048 6.144-5.12 12.288-7.168 18.432-5.12 10.24-11.264 19.456-19.456 27.648l-52.224 52.224-51.2 51.2-36.864 36.864c-1.024 1.024-1.024 3.072 0 4.096 27.648 27.648 55.296 55.296 83.968 82.944 20.48 20.48 41.984 41.984 62.464 63.488 5.12 5.12 8.192 11.264 11.264 17.408l9.216 18.432c2.048 5.12 3.072 10.24 4.096 15.36 2.048 7.168 3.072 15.36 4.096 23.552-2.048 9.216-3.072 16.384-4.096 24.576z m220.16-205.824c-4.096 8.192-8.192 16.384-13.312 24.576-5.12 7.168-11.264 15.36-17.408 21.504-7.168 6.144-14.336 11.264-22.528 16.384-5.12 3.072-10.24 6.144-15.36 8.192-5.12 2.048-11.264 4.096-17.408 5.12-6.144 1.024-11.264 2.048-17.408 2.048-10.24 0-20.48 1.024-30.72-1.024-13.312-2.048-25.6-6.144-36.864-13.312-6.144-4.096-13.312-8.192-19.456-13.312-8.192-6.144-15.36-13.312-22.528-20.48-4.096-4.096-8.192-8.192-11.264-12.288-2.048-2.048-3.072-2.048-4.096 0l-39.936 39.936c-2.048 2.048-3.072 2.048-4.096 0l-50.176-50.176c-2.048-2.048-3.072-4.096 0-6.144 13.312-12.288 25.6-25.6 38.912-37.888 2.048-2.048 2.048-3.072 0-5.12l-38.912-38.912c-2.048-2.048-2.048-3.072 0-5.12l49.152-49.152c5.12-5.12 5.12-5.12 9.216 0 12.288 13.312 25.6 26.624 37.888 38.912l1.024 1.024c4.096-5.12 8.192-10.24 13.312-15.36 8.192-7.168 16.384-15.36 24.576-22.528 7.168-6.144 15.36-11.264 23.552-15.36 7.168-4.096 15.36-6.144 22.528-8.192 12.288-4.096 25.6-3.072 37.888-2.048 7.168 1.024 14.336 1.024 21.504 2.048 6.144 1.024 12.288 4.096 18.432 6.144 7.168 4.096 15.36 8.192 21.504 13.312 7.168 5.12 13.312 12.288 19.456 18.432 7.168 8.192 13.312 17.408 17.408 26.624 2.048 5.12 4.096 11.264 6.144 17.408 5.12 14.336 4.096 29.696 3.072 45.056 1.024 10.24 0 20.48-4.096 29.696z m0 0" fill="#E90003" p-id="14789"></path><path d="M880.64 468.992c-8.192-8.192-18.432-12.288-29.696-13.312-3.072 1.024-7.168 2.048-10.24 2.048-7.168 1.024-12.288 5.12-17.408 9.216l-27.648 27.648c-1.024 1.024-1.024 3.072 0 4.096 3.072 3.072 6.144 5.12 9.216 8.192 7.168 7.168 14.336 15.36 22.528 21.504 3.072 3.072 8.192 5.12 12.288 6.144 3.072 1.024 7.168 1.024 10.24 1.024 5.12 0 11.264-1.024 16.384-2.048 4.096-1.024 8.192-5.12 12.288-7.168 8.192-6.144 12.288-15.36 13.312-25.6 0-4.096-1.024-9.216-2.048-13.312 0-7.168-4.096-13.312-9.216-18.432z m0 0" fill="#E90003" p-id="14790"></path></svg>