<svg t="1766308491709" class="icon" viewBox="0 0 1029 1024" version="1.1" xmlns="http://www.w3.org/2000/svg" p-id="3282" width="200" height="200"><path d="M991.961594 960.002544H65.022439c16.383349-232.182771 210.679625-383.984737 446.958234-383.984737h1.279949a287.988552 287.988552 0 1 0-153.593895-43.51827C151.547 588.817299 0.001024 762.634389 0.001024 992.001272A31.742738 31.742738 0 0 0 31.743762 1024h960.217832a31.998728 31.998728 0 0 0 0-63.997456zM288.245566 287.773265A223.735107 223.735107 0 1 1 511.980673 512.020351a223.991096 223.991096 0 0 1-223.735107-224.247086z m628.455019 438.510569a43.26228 43.26228 0 1 1 0 86.268571H651.495127a43.26228 43.26228 0 1 1 0-86.268571h265.205458m0-63.997456H651.495127a107.259736 107.259736 0 1 0 0 214.263483h265.205458a107.259736 107.259736 0 1 0 0-214.263483z" p-id="3283"></path></svg>