<svg t="1765428241649" class="icon" viewBox="0 0 1024 1024" version="1.1" xmlns="http://www.w3.org/2000/svg" p-id="11740" width="200" height="200"><path d="M1016.06139596 718.11967971H9.61764737l54.21376993-79.4419599-54.21376993-79.97872987h1006.44374859l-55.82407993 79.97872987z" fill="#d81e06" p-id="11741"></path><path d="M115.36133723 239.85761039c0-18.25017997 13.95601998-38.11066995 30.59588996-44.55190994l336.01801951-126.14094982c17.17663997-6.44123999 44.55190993-6.44123999 61.72854992 0L879.72181614 195.30570045c17.17663997 6.44123999 30.59588996 26.30172996 30.59588995 44.55190994v511.00503927c0 18.25017997-13.95601998 38.11066995-30.59588995 44.55190994l-336.01801952 126.14094982c-17.17663997 6.44123999-44.55190993 6.44123999-61.72854992 0l-336.01801951-126.14094982c-17.17663997-6.44123999-30.59588996-26.30172996-30.59588996-44.55190994V239.85761039z" fill="#FFC935" p-id="11742"></path><path d="M176.01634714 774.48052963c-17.17663997-6.44123999-30.59588996-26.30172996-30.59588996-44.55190994V260.79164036c0-18.25017997 13.95601998-38.11066995 30.59588996-44.55190994l305.95889956-114.86877984c17.17663997-6.44123999 44.55190993-6.44123999 61.72854992 0l305.95889957 114.86877984c17.17663997 6.44123999 30.59588996 26.30172996 30.59588995 44.55190994v469.67374933c0 18.25017997-13.95601998 38.11066995-30.59588995 44.55190994l-305.95889957 114.86877984c-17.17663997 6.44123999-44.55190993 6.44123999-61.72854992 0l-305.95889956-115.40554984z" fill="#F99F00" p-id="11743"></path><path d="M308.59853695 747.10525967c-8.58831999 0-17.71340998-0.53676999-27.91203996-2.14708l-65.4859399-8.58831998 48.30929992-45.08867995c13.41924998-12.34570998 19.32371997-28.44880997 19.32371997-49.91960993V441.6831301h-31.13265995V359.55732022h48.30929993c-11.80893999-12.88247998-15.56632998-27.91203995-16.63986998-38.11066996-3.75739-16.63986998-8.05154999-38.11066995-11.80893998-64.94916989l-4.83092998-35.42681996h141.70727978l1.61031001 29.52234996 1.61030999 17.71340998h12.88247999c3.75739-6.97800999 7.51477999-15.56632998 10.73539998-25.76495997l6.97800998-21.47079997h129.36156983l-5.36769999 35.96358995c-0.53676999 4.29415999-1.61030999 8.05154999-2.14708001 12.34570998 6.97800999 1.61030999 13.41924998 4.29415999 19.32371998 8.05155 1.61030999-9.12508999 3.75739-19.32371997 5.36769999-30.05911996l4.29415999-25.76495997h120.23647984l-5.90447 36.50035995c-1.61030999 8.58831999-3.22061999 19.32371997-5.36769999 32.20619996H780.41936628v84.27288987h-10.19862998l-0.53677 2.14708c-10.73539998 39.72097995-23.61787996 84.80965988-39.18420994 134.19249981-2.14708001 8.58831999-4.29415999 15.02955998-5.3677 20.39725997 32.20619995 90.17735987 46.69898994 109.50107984 50.45637993 113.25846985l41.86805994 41.86805993-32.74296995 6.44124v48.30929992H483.04878671c-25.76495997 0-63.33885992-3.75739-91.25089987-23.61787997-19.32371997 18.78694997-47.23575993 29.52234996-83.19934989 29.52234997zM282.83357698 430.94773011" fill="#6B1B1C" p-id="11744"></path><path d="M596.84402654 508.24261H483.04878671v48.84606994c3.75739-18.25017997 17.71340998-27.37526996 41.33128994-27.37526996 44.55190993-2.68385 65.4859399 15.02955998 62.80208991 53.14022991v25.22818997c1.07354 40.25774994-13.95601998 60.11823991-45.08867994 59.04469992-30.05911996 0-52.06668993-10.19862998-66.5594799-31.13265995-6.44123999 17.17663997-29.52234996 25.22818996-68.70655991 25.22818996 10.19862998 18.25017997 38.64743995 26.83849996 84.27288988 25.22818996H753.58086632v21.47079997H483.04878671c-57.43438991 0-89.64058988-18.25017997-96.08182987-54.75053991-8.05154999 48.30929993-41.86805994 68.70655991-101.98629985 60.65500991 19.32371997-18.25017997 29.52234996-42.40482995 29.52234995-72.46394991V435.7786601c0-17.17663997-5.36769999-25.22818996-15.56632998-25.22818995h-15.56632998v-19.86048998h60.65500992c28.98557996 1.07354 42.94159994 16.10309998 42.94159994 45.08867993v186.25918974c3.75739 14.49278997 8.58831999 25.22818996 13.95601999 33.27973995 14.49278997-18.25017997 21.47079998-49.38283993 21.47079996-93.93474986v-53.14022993h-19.86048997v-19.86048996h56.89761992v-31.13265997h74.61102989v31.13265997h62.80208991v19.86048996zM302.69406696 251.66655037h76.2213399c1.07354 22.00756997 4.29415999 42.94159994 9.66185998 62.8020899 3.75739 17.17663997 11.27216999 30.05911996 21.47079997 39.18420995-62.8020899 6.44123999-94.47151987-5.90446999-96.08182986-37.03712994-3.22061999-16.10309998-6.97800999-37.57389995-11.27216999-64.94916991z m317.76783954 0h56.89761992c-2.68385 15.56632998-6.44123999 38.64743995-11.80893997 68.70655991h84.27288988v21.47079996h-90.17735988v3.75739c0 24.69141997-23.61787996 36.50035994-70.31686989 35.42681994v15.56632998c3.75739 41.86805994-20.39725998 60.65500992-72.46394991 56.89761993-22.00756997 1.07354-34.89004995-5.36769999-37.03712994-19.86048998v19.86048998H412.7319168V298.9023103H442.25426675c9.12508999-11.80893999 17.17663997-27.37526996 23.61787999-47.23575993h70.31686989c-2.68385 17.17663997-8.05154999 32.20619995-15.56632998 45.08867994h13.95601997c38.11066995-1.07354 56.36084992 17.71340998 54.75053994 56.89761991v17.71340998c10.19862998-18.25017997 20.39725998-58.50792991 31.13265994-119.69970983z m-98.22890985 350.5108095v-17.71340997c0-23.61787996-6.97800999-34.35327995-21.47079997-33.27973996-8.05154999 0-13.95601998 6.44123999-17.71340997 19.86048998v2.14707999c0 31.13265995-2.14708001 51.52991993-5.90447 60.65500992 0 1.07354 0.53676999 2.14708001 2.14708 2.14708 8.05154999 2.68385 15.02955998 3.22061999 21.47079997 2.14707999 14.49278997 0.53676999 21.47079998-10.73539998 21.47079997-35.96358995z m-42.94159994-269.99530961V361.7044002h42.94159994v-21.47079996c0-15.56632998-8.05154999-23.61787996-23.61787997-23.61787996-10.19862998-0.53676999-16.63986998 4.83092999-19.32371997 15.56632998z m42.94159994 70.3168699v-23.61787997h-42.94159994v39.18420994c5.36769999 10.73539998 11.80893999 15.56632998 19.86048997 15.56632998 13.95601998 0 22.00756997-10.19862998 23.08110997-31.13265995z m72.4639499 2.14707998h54.75053992c1.07354 5.36769999 2.68385 11.27216999 3.75739 17.71340998 5.36769999 12.88247998 9.12508999 23.08110997 11.80893998 29.52234997 5.36769999-24.69141997 12.88247998-53.14022992 23.61787996-84.27288988h50.99314993c-10.73539998 39.18420994-23.61787996 83.73611987-39.18420994 133.1189598-3.75739 14.49278997-6.44123999 24.69141997-8.05154999 31.13265996 26.30172996 74.61102989 46.16221993 118.62616983 60.65500991 133.11895981-48.30929993 9.12508999-76.2213399-9.12508999-84.27288988-54.75053991-11.80893999 47.23575993-40.25774994 66.02270991-86.41996988 56.89761991 20.93402997-30.05911996 40.25774994-75.14779989 59.04469992-135.26603981-19.32371997-53.67699992-34.89004995-96.08182986-46.69898993-127.21448983z" fill="#FFFFFF" p-id="11745"></path><path d="M955.40638604 731.53892969c-89.64058988-47.23575993-254.42897965-78.90518989-442.83524938-78.90518989-189.47980974 0-354.8049695 32.20619995-443.90878937 79.97872989L163.13386716 892.56992947c79.97872988-33.27973996 207.19321971-54.75053993 349.9740395-54.75053993 142.2440498 0 268.38499962 21.47079998 348.36372951 54.21376992l93.93474987-160.49422977z" fill="#d81e06" p-id="11746"></path><path d="M161.52355716 896.32731945l-97.15536986-165.32515976 3.22061999-1.61031c92.32443987-49.38283993 263.55406963-80.51549989 445.51909937-80.51549988 180.89148975 0 351.0475795 30.59588996 443.90878937 79.44195988l3.22062 1.61031-97.15536987 165.86192977-2.68384999-1.07354001c-83.19934988-34.35327995-209.8770697-53.67699992-347.29018951-53.67699991-138.4866598 0-265.16437962 19.86048997-348.9004995 54.21376992l-2.68385 1.07353999z m-88.03027988-162.64130977l90.71412988 154.58975979c84.27288988-34.35327995 210.9506097-53.67699992 348.3637295-53.67699993 136.87634981 0 263.01729963 19.32371997 346.75341951 53.14022993l91.25089986-155.12652978c-92.86120986-47.77252993-259.79667964-77.29487989-438.00431937-77.2948799-178.74440974 0.53676999-346.75341951 30.05911996-439.07785938 78.36841989z" fill="#FFFFFF" p-id="11747"></path><path d="M220.03148708 744.42140968l21.47079997-3.75739 9.66185999 57.43438992-5.90447 1.07353999-1.07354-6.97800999-9.12508999 1.61031 1.07354001 7.51477999-5.90447001 1.07354-10.19862997-57.97115991z m16.10309998 3.22061998l-9.12509 1.61031 6.44124 39.18420996 9.12508998-1.61031002-6.44123998-39.18420994z m12.88247998 23.61787997l22.54433996-3.75739-4.83092998-28.98557995c-5.90446999 1.61030999-12.88247998 3.22061999-19.86048999 4.83092999-0.53676999-1.61030999-1.61030999-3.75739-2.14707998-5.36769999 16.63986998-3.22061999 31.66942995-6.97800999 45.62544993-11.27216998l1.61030999 5.36769999c-5.90446999 1.61030999-12.34570998 3.22061999-19.32371997 4.83092999l4.83093 29.52234997 22.54433996-3.75739 1.07354001 5.90446998-22.54433998 3.75739 3.75738999 22.00756997c1.07354 6.44123999-1.07354 10.19862998-6.97800998 11.27216999-3.22061999 0.53676999-7.51477999 1.07354-12.88247998 2.14707999-0.53676999-2.14708001-1.61030999-4.29415999-2.68385-6.44123999 5.36769999-0.53676999 9.66185998-1.07354 12.34570999-1.61031 2.68385-0.53676999 4.29415999-2.14708001 3.75738999-5.36769999l-3.22062-20.39725998-22.54433996 3.75739-1.07354-6.44123999z m0-22.00756997l4.83092999-3.22061999c4.29415999 5.36769999 8.05154999 10.73539998 11.27216998 16.10309998l-5.36769999 4.29416c-3.22061999-6.44123999-6.97800999-11.80893999-10.73539998-17.17663999z m32.20619995 10.73539999c2.68385-7.51477999 4.83092999-13.95601998 5.90446999-20.39725998l6.44123999 1.61031c-2.14708001 7.51477999-4.83092999 14.49278997-6.97800999 20.39725998l-5.36769999-1.61031zM308.06176695 724.56091969l27.37526995-3.22061999 6.97801 65.4859399c0.53676999 5.36769999-2.14708001 8.58831999-7.51477999 9.12508999-2.68385 0.53676999-5.90446999 0.53676999-9.12508999 1.07354001-0.53676999-2.14708001-1.07354-3.75739-1.61030999-5.90446999 3.22061999 0 6.44123999 0 8.58831998-0.53677001 2.68385-0.53676999 3.75739-1.61030999 3.75739-4.29415999l-2.14707999-17.71340998-16.10309998 1.61031001c0.53676999 11.80893999-1.07354 22.00756997-4.83093001 31.13265995-1.61030999-1.61030999-3.75739-2.68385-5.36769998-3.75738999 4.29415999-8.58831999 5.36769999-19.32371997 3.75738999-32.74296996l-3.75738999-40.25774995z m22.00756997 3.22062001l-16.10309997 1.61030999 1.61030999 15.02955999 16.10309998-1.61031001-1.61031-15.02955997z m-11.80893998 37.03712994l16.10309998-1.61031-1.61031001-15.02955997-16.10309997 1.61031 1.61031 15.02955997z m26.30172996-44.55190994l31.13265995-3.22061999 6.97800999 65.4859399c0.53676999 6.44123999-2.14708001 9.66185998-8.05154998 10.19863-2.68385 0.53676999-5.90446999 0.53676999-9.66185999 1.07353999-0.53676999-1.61030999-1.07354-3.75739-1.61030999-5.90446999 3.22061999 0 6.44123999 0 9.12508998-0.53676999s4.29415999-2.14708001 3.75739-4.83093001l-2.14708001-18.78694996-19.86048996 2.14707999c0.53676999 12.34570998-1.07354 22.54433996-5.36769999 31.13265996-1.61030999-1.61030999-3.75739-2.68385-5.3677-3.75739 4.83092999-8.58831999 5.90446999-19.86048997 4.29415999-33.81650995l-3.22061999-39.18420995z m25.76495997 2.68385l-19.32371998 2.14708 1.61031 15.02955998 19.32371997-2.14708-1.61030999-15.02955998z m-15.56632999 37.57389994l19.32371997-2.14707999-1.61030999-15.02955998-19.32371997 2.14708001 1.61030999 15.02955996zM390.18757683 721.8770697l19.86048998-1.07353999 3.22061999 55.82407991-13.95601999 0.53677 0.53677001 6.44124-5.90446999 0.53676999-3.75739-62.26531991z m14.49278998 4.83093l-8.05154998 0.53676999 2.68384998 44.55190995 8.05155-0.53677001-2.68385-44.55190993z m10.19862999 34.35327994l5.3677-0.53677-1.07354-23.08110996c-1.61030999-1.07354-2.68385-2.14708001-4.83093-3.75739 6.97800999-6.97800999 11.80893999-15.56632998 15.56632998-24.69141997l6.44123999 0.53677002c-1.07354 2.68385-2.68385 5.36769999-3.75738999 8.05154997l23.61787996-1.07353999 0.53677 5.36769999c-2.14708001 3.22061999-5.36769999 6.97800999-9.12508999 11.80893998l15.02955998-1.07353999 1.61030999 24.69141997 5.90447001-0.53677001 0.53676999 5.3677-23.08110997 1.07353999c5.36769999 9.12508999 13.41924998 15.02955998 24.69141997 16.63986998-1.61030999 2.14708001-3.22061999 4.29415999-4.29416 6.44123999-11.27216999-3.75739-19.86048997-10.19862998-25.22818996-20.39725997-3.22061999 9.66185998-11.80893999 17.71340998-24.69141996 23.61787996-1.07354-1.61030999-2.68385-3.75739-4.83093-5.36769999 13.41924998-5.36769999 21.47079998-12.34570998 24.15464997-20.93402997l-21.47079997 1.07354-1.07354-3.22062z m33.81650995-37.57389993l-19.32371997 1.07353998c-2.14708001 3.75739-5.36769999 8.05154999-8.05155 11.80894l18.78694999-1.07354c3.22061999-4.83092999 6.44123999-9.12508999 8.58831998-11.80893998z m-22.54433997 37.03712993l11.80893998-0.53676999c0.53676999-3.75739 0.53676999-10.19862998 0-19.32371997l-12.88247998 0.53676999 1.07354 19.32371997z m30.59588996-20.93402997l-12.88247997 0.53677001c0.53676999 9.12508999 0.53676999 15.56632998 0.53676999 19.32371997l13.41924998-0.53677-1.07354-19.32371998zM474.99723672 720.2667597h23.08110996l1.61031-12.88247998 6.97800999 1.07354c-0.53676999 4.29415999-1.07354 8.05154999-1.61030999 11.80893998h47.77252992v6.44124h-48.84606993c-1.07354 4.29415999-1.61030999 8.05154999-2.68384999 12.34570998h42.94159994v5.90446999c-4.29415999 11.27216999-9.66185998 19.86048997-17.71340998 26.30172996 7.51477999 4.83092999 16.63986998 8.05154999 27.91203996 9.66185999-2.14708001 2.68385-3.75739 4.83092999-5.36769998 7.51478-11.27216999-3.22061999-20.39725998-7.51477999-27.91203998-12.88247999-8.05154999 5.36769999-17.71340998 10.19862998-29.52234995 13.95601997-1.61030999-2.14708001-3.22061999-4.29415999-4.29415999-6.44123998 11.27216999-3.22061999 20.93402997-6.97800999 28.44880996-11.80893999-7.51477999-6.97800999-12.88247998-15.56632998-16.10309998-26.30172996-5.36769999 17.71340998-12.88247998 31.13265995-22.54433997 40.79451994-1.61030999-2.14708001-2.68385-3.75739-4.29415999-5.36769999 11.80893999-11.80893999 19.86048997-29.52234996 24.69141996-53.14022993h-21.47079997l-1.07353999-6.97800999z m61.19177991 23.61787996h-30.59588996c3.22061999 9.12508999 8.05154999 16.63986998 15.02955998 22.00756998 8.05154999-5.90446999 12.88247998-13.41924998 15.56632998-22.00756998zM637.10177648 778.77468963c-2.14708001 2.14708001-3.75739 4.29415999-4.83092998 5.90446999-13.95601998-6.97800999-24.69141997-15.56632998-32.20619996-26.30172997l-1.61031 31.13265995-6.44123998-0.53676999 1.61030999-31.66942995c-8.58831999 9.12508999-19.86048997 17.17663997-34.35327996 24.69141996-1.07354-1.61030999-2.68385-3.75739-4.29415999-5.90446999 14.49278997-6.44123999 26.83849996-13.95601998 37.03712996-23.08110997l-34.35327996-1.61031 0.53677-5.90446998 36.50035995 1.61030999 1.07354-21.47079998-31.66942997-1.61030999 0.53677001-5.90446999 31.66942996 1.61031 0.53676999-11.80893999 6.44123999 0.53677-0.53677 11.80893998 32.20619997 1.61031v5.90447l-32.20619997-1.61031-1.07353999 21.47079996 36.50035994 1.61031v5.90447l-34.89004995-1.61031c7.51477999 10.73539998 18.78694997 18.78694997 33.81650995 25.22818997z m-66.5594799-47.23575994l4.83093-3.75738999c3.75739 4.29415999 7.51477999 8.58831999 10.73539997 13.41924997l-5.36769999 4.29416001c-2.68385-3.75739-5.90446999-8.58831999-10.19862998-13.95601999z m38.64743995 11.80893998c5.36769999-4.83092999 9.12508999-9.66185998 12.34570997-13.41924998l5.3677 4.83092999c-4.29415999 4.83092999-8.58831999 9.12508999-13.41924998 12.88247998l-4.29415999-4.29415999zM658.03580645 731.00215969l5.3677 0.53677-2.14707999 22.00756997c-0.53676999 5.36769999-1.61030999 10.19862998-2.68385 14.49278998 3.75739 3.75739 6.97800999 8.05154999 10.19862998 11.80893998l-4.29416 3.75739c-2.68385-3.75739-4.83092999-6.97800999-7.51477997-10.19862999-3.22061999 8.05154999-8.05154999 13.95601998-14.49279 18.25017998-1.07354-1.61030999-2.14708001-3.75739-3.75738999-5.3677 9.66185998-5.36769999 15.56632998-16.10309998 17.17663998-33.27973995l2.14707999-22.00756997z m-9.12508998-13.41924999l25.76495996 2.68385-5.36769999 52.06668993-5.36769999-0.53676999 4.83092999-46.16221995-15.02955998-1.61030999-4.83092999 46.69898994-5.36769999-0.53677 5.36769999-52.60345994z m25.76495996 45.08867995l10.73539998 1.07354 1.07354-8.05155-13.41924998-1.61030999 0.53677001-4.29415999 13.41924998 1.61030999 1.07353999-7.51478-10.73539999-1.07353999 0.53677002-4.29415999 10.73539997 1.07353999 0.53677-6.97800998-11.80893999-1.07354 0.53677002-4.29416 11.27216997 1.07354c-1.61030999-3.22061999-3.22061999-6.44123999-4.83092999-9.12508998l5.36769999-2.14708c2.14708001 3.22061999 3.75739 6.44123999 5.36769999 9.66185999l-3.75738999 2.14708 12.34570997 1.07353999c2.68385-3.75739 4.83092999-7.51477999 6.97801-11.27216998l5.90446999 3.22061999c-2.14708001 2.68385-4.29415999 5.90446999-6.44123999 8.58831999l13.95601998 1.61031-0.53676999 4.29416-15.56632999-1.61031001-0.53677 6.97801 12.88247998 1.61030999-1.07354 12.34570998 4.83093 0.53677-0.53676999 4.29415999-4.83093-0.53676999-1.61030999 15.56632998-4.83093001-0.53677 0.53677001-3.22061999-6.44123999-0.53677001c3.22061999 8.58831999 8.05154999 15.56632998 14.49278998 20.93402997-1.61030999 1.07354-3.22061999 2.68385-4.83093 4.83093-5.36769999-6.44123999-9.66185998-12.88247998-11.80893997-20.39725998l-2.68385 23.08110997-5.36769999-0.53677 3.22061998-27.91203996-8.05154998-1.07353999-3.22062 27.91203996-5.36769999-0.53677 2.68384999-22.54433997c-4.83092999 6.97800999-10.73539998 12.88247998-18.78694997 17.71340998-1.07354-2.68385-1.61030999-4.29415999-2.14708-5.90447001 8.58831999-3.75739 15.02955998-9.66185998 19.86048998-17.17663997l-9.12508998-1.07354-0.53677001-5.90446998z m16.10309998 1.61030999l8.05154999 1.07354 1.07354001-8.05154998-8.05155-1.07354001-1.07354 8.05154999z m1.07354-12.34570999l8.05155 1.07354001 1.07353998-7.51477998-8.05154999-1.07354-1.07353999 7.51477997z m1.61031-12.34570998l8.05154999 1.07354001 0.53676999-6.97801-8.05154999-1.07353999-0.53676999 6.97800998z m10.19862997 26.30172997l8.05155 1.07354 1.07354-8.05154999-8.05154999-1.07354-1.07354001 8.05154999z m9.66186-19.32371998l-8.05154999-1.07353998-1.07353999 7.51477998 8.05154997 1.07354 1.07354001-7.51478zM726.20559636 764.28189964l11.27216998 2.14708001 2.14708-11.27216999-4.29415999-1.07354 0.53676999-4.29415999c-1.61030999 2.14708001-3.22061999 3.75739-4.83092998 5.36769999l-3.22062-6.44123999c6.97800999-7.51477999 12.88247998-16.10309998 17.71340997-26.30172996l5.90446999 2.68384999c-1.61030999 3.22061999-3.75739 6.44123999-5.36769999 9.12508998l16.10309997 2.68385-1.07353998 5.90446999-18.25017998-3.22062c-2.14708001 2.68385-3.75739 5.36769999-5.90447 8.05154999l20.93402997 3.75739-1.07353999 5.90447-10.73539999-2.14708-2.14708 11.27216999 11.80893998 2.14707998-1.07353999 5.90447-11.80893998-2.14708-3.22062 17.17663997c3.75739-1.61030999 8.05154999-3.22061999 13.41924998-5.36769999v6.44123999c-5.90446999 2.14708001-10.73539998 4.29415999-14.49278999 5.90447-2.14708001 1.07354-3.75739 2.14708001-5.36769998 2.68384999l-3.22061999-6.44123998c2.14708001-1.61030999 3.75739-3.22061999 4.29415998-5.90447001l2.68385-16.10309996-11.27216998-2.14708001 0.53677-4.29415999z m23.08110997 34.89004995c8.05154999-1.61030999 15.56632998-4.29415999 22.54433996-8.05154998-1.61030999-5.90446999-2.14708001-12.34570998-2.14707999-20.39725997l-12.34570998-0.53677V764.28189964l12.34570998 0.53677c0-3.75739 0.53676999-7.51477999 1.07354-11.80893998l-10.73539999-0.53677v-5.90447l11.27216998 1.07354c0.53676999-5.90446999 1.61030999-12.34570998 3.22062-18.78694996l6.44123999 1.07353999c-1.07354 6.44123999-2.14708001 12.88247998-2.68384999 18.25017998l27.91203995 2.14707999-0.53676999 5.90446999-28.44880997-2.14707999c-0.53676999 4.29415999-1.07354 8.05154999-1.07353999 11.27216998l27.91203997 1.61031-0.53677002 5.90446999-27.91203995-1.61031c0 6.44123999 0 11.80893999 1.61030999 16.63986998 5.90446999-3.22061999 11.27216999-7.51477999 16.10309998-12.34570998l4.29416 4.83092999c-5.90446999 5.36769999-11.80893999 9.66185998-18.25017997 13.95601998 1.61030999 3.75739 3.75739 6.97800999 6.97800999 9.66185999 3.22061999 2.68385 5.36769999 2.68385 6.44123999-1.07354 1.61030999-4.29415999 3.22061999-8.05154999 4.29415999-11.80893998 2.14708001 1.07354 3.75739 2.14708001 5.36769999 3.22061999-2.14708001 6.44123999-3.75739 10.73539998-5.36769999 13.41924998-2.14708001 4.29415999-4.83092999 5.90446999-8.58831999 5.36769999-3.22061999-0.53676999-5.90446999-2.14708001-8.58831999-5.36769999-2.68385-2.68385-4.83092999-5.90446999-6.44123998-9.66185998-6.97800999 3.22061999-13.95601998 5.90446999-22.00756998 8.05154998 0.53676999-2.68385-0.53676999-4.83092999-2.14707999-6.97800999z m37.03712995-64.41239991l4.29415998-3.22061999c3.75739 3.75739 6.97800999 7.51477999 9.66186 10.73539998l-4.83093 3.75739c-3.22061999-3.75739-6.44123999-7.51477999-9.12508998-11.27216999z" fill="#FFFFFF" p-id="11748"></path><path d="M834.1983525 783.09568812l29.74779336-17.17663998 17.17663998 29.74779336-29.74779336 17.17663997zM183.37009613 813.14944037l-29.74779336-17.17663997 17.17663997-29.75316107 29.75316107 17.17663998z" fill="#FFFFFF" p-id="11749"></path></svg>