<svg t="1765723140800" class="icon" viewBox="0 0 1024 1024" version="1.1" xmlns="http://www.w3.org/2000/svg" p-id="3976" width="200" height="200"><path d="M512 44.608l388.352 109.696a38.016 38.016 0 0 1 27.648 36.608v337.984c-1.984 110.528-40.192 207.04-113.984 288-73.92 81.024-172.48 134.528-294.592 160.32l-8.192 1.728-8.192-2.048c-127.616-32.832-225.536-85.952-293.056-160-68.096-74.688-105.984-171.584-113.92-289.28L96 526.336V190.976c0-17.024 11.328-32 27.648-36.608L512 44.608z m0 74.816L168 216.64v307.328l0.128 1.856c7.232 99.712 38.4 179.52 93.44 240.704l1.664 1.92c55.488 60.8 137.728 106.304 247.488 136l2.048 0.512 1.408-0.32c102.272-23.232 183.552-67.968 244.736-134.144l1.92-2.112c62.592-68.672 94.08-149.376 95.168-243.584V216.64L512 119.36z m222.592 229.888a32 32 0 0 1 0.448 44.864l-0.384 0.384-244.8 246.016a32 32 0 0 1-44.992 0.384l-0.384-0.384-155.136-155.968a32 32 0 0 1 44.992-45.504L467.2 572.608 689.28 349.44a32 32 0 0 1 45.312-0.128z" fill="#ffffff" p-id="3977"></path></svg>