<svg t="1765434320703" class="icon" viewBox="0 0 1024 1024" version="1.1" xmlns="http://www.w3.org/2000/svg" p-id="70076" width="200" height="200"><path d="M874.666667 341.333333m-128 0a128 128 0 1 0 256 0 128 128 0 1 0-256 0Z" fill="#FFE7D4" p-id="70077"></path><path d="M904.533333 396.8c2.133333 0 2.133333 0 4.266667 2.133333 0 0 2.133333 2.133333 2.133333 10.666667h8.533334l12.8-72.533333h-138.666667l10.666667-57.6h-68.266667l6.4 19.2-6.4 38.4h-89.6l19.2-44.8h-76.8l4.266667 23.466666-61.866667 123.733334h12.8l-12.8 76.8h358.4c2.133333 0 2.133333 0 4.266667 2.133333s2.133333 4.266667 2.133333 8.533333h8.533333l12.8-72.533333h-142.933333l10.666667-57.6h119.466666z m-288 0h106.666667l-10.666667 57.6h-155.733333l-10.666667-14.933333h42.666667l27.733333-42.666667z" fill="#006eff" p-id="70078"></path><path d="M87.466667 505.6l142.933333-221.866667H128l6.4 21.333334-128 200.533333z" fill="#FF653A" p-id="70079"></path><path d="M268.8 558.933333l10.666667 21.333334 8.533333 104.533333H106.666667l166.4-264.533333H177.066667l6.4 19.2-160 247.466666H21.333333L10.666667 746.666667h354.133333l-14.933333-187.733334zM394.666667 283.733333h-130.133334l-27.733333 42.666667h68.266667l51.2 179.2h83.2l-61.866667-198.4zM842.666667 533.333333h-320l2.133333 23.466667-32 189.866667h330.666667c21.333333 0 42.666667-17.066667 44.8-40.533334l29.866666-172.8h-55.466666z m-23.466667 117.333334l-4.266667 27.733333c-2.133333 4.266667-8.533333 8.533333-12.8 8.533333H561.066667l17.066666-91.733333h251.733334l-10.666667 55.466667z" fill="#006eff" p-id="70080"></path></svg>