<svg t="1763309677704" class="icon" viewBox="0 0 1040 1024" version="1.1" xmlns="http://www.w3.org/2000/svg" p-id="243927" width="200" height="200"><path d="M127.884387 19.059613A225.527742 225.527742 0 0 0 16.334452 141.757935C-3.138065 195.930839-3.138065 823.329032 16.334452 877.501935A217.071484 217.071484 0 0 0 130.147097 1000.216774l43.784258 19.059613h698.401032l41.339871-19.059613a225.527742 225.527742 0 0 0 111.549936-122.698322c19.257806-54.172903 19.257806-681.587613 0-735.760517a225.527742 225.527742 0 0 0-111.549936-122.698322L872.332387 0H169.026065L127.884387 19.059613z" fill="#0970FF" p-id="243928" data-spm-anchor-id="a313x.search_index.0.i68.7bc23a81x904aa" class="selected"></path><path d="M701.506065 226.502194H216.212645a68.261161 68.261161 0 0 0-63.421935 71.729548v422.812903A68.376774 68.376774 0 0 0 216.212645 792.774194h628.372645a68.228129 68.228129 0 0 0 63.240258-71.729549V382.034581l-206.319483-155.532387z m-190.265807 114.209032a35.344516 35.344516 0 0 1 33.032258 37.177806v53.413162h-72.291097V340.727742h39.258839z m-64.924903 0v354.667355h-106.264774V340.711226h106.264774z m-131.947355 0v90.590968h-73.050839V377.889032a35.344516 35.344516 0 0 1 33.032258-37.177806h40.018581z m-73.050839 119.477677h73.050839v92.672h-73.050839v-92.672z m0 121.55871h73.050839v113.630968h-40.018581a35.658323 35.658323 0 0 1-33.032258-37.376v-76.254968z m230.664258 113.630968v-113.630968h72.291097v76.254968a35.658323 35.658323 0 0 1-33.032258 37.376h-39.258839z m72.291097-142.517678h-72.291097v-92.672h72.291097v92.672z m0 0l194.427871 31.529291-31.331097 89.088a38.201806 38.201806 0 0 0-2.64258 10.388645h-0.379871a68.211613 68.211613 0 0 0-2.26271-10.190452l-30.769548-89.286193h-16.433549l41.158194 114.192516h16.417032l41.901419-114.192516h-15.65729l-194.427871-31.529291z m57.575226 0h-36.814452v12.469678h10.950194v89.269677h-10.950194v12.469677h36.814452v-12.469677h-11.131871V565.347097h11.131871v-12.469678z m111.929806 0h-14.715871v78.534194a148.975484 148.975484 0 0 0 0.743226 16.598709h-0.181677a124.135226 124.135226 0 0 0-4.723613-7.729548l-56.055742-87.403355h-18.498065v114.209032h14.715871V586.818065a140.965161 140.965161 0 0 0-0.561548-16.037162h0.379871c1.057032 2.642581 2.394839 5.169548 3.963871 7.547871l57.377032 88.724645h17.556645v-114.209032z" fill="#FFFFFF" p-id="243929"></path></svg>